<?xml version="1.0" standalone="no"?>
<!DOCTYPE svg PUBLIC "-//W3C//DTD SVG 1.1//EN" "http://www.w3.org/Graphics/SVG/1.1/DTD/svg11.dtd" >
<svg xmlns="http://www.w3.org/2000/svg">
<metadata></metadata>
<defs>
<font id="ChewyRegular" horiz-adv-x="1076" >
<font-face units-per-em="2048" ascent="1638" descent="-410" />
<missing-glyph horiz-adv-x="482" />
<glyph horiz-adv-x="0" />
<glyph horiz-adv-x="2048" />
<glyph unicode=" "  horiz-adv-x="482" />
<glyph unicode="&#x09;" horiz-adv-x="482" />
<glyph unicode="&#xa0;" horiz-adv-x="482" />
<glyph unicode="!" horiz-adv-x="496" d="M62 980v91q0 336 112 432q36 31 87 31t82 -41t50 -106t28 -145t12 -157t2 -143t-1 -101t-4 -90t-12 -118t-23 -128t-35 -118q-45 -119 -112 -119q-79 0 -127 153q-59 188 -59 559zM98 30q0 40 17 65t43 43q55 38 108.5 38t91.5 -23t38 -66t-16 -68t-42 -42 q-50 -33 -105 -33t-95 23t-40 63z" />
<glyph unicode="&#x22;" horiz-adv-x="582" d="M62 1292q0 200 88 200q62 0 90 -73q18 -47 18 -101t-4 -117t-14 -126q-25 -157 -80 -157q-59 0 -89 250q-9 76 -9 124zM324 1292q0 200 88 200q62 0 90 -73q18 -47 18 -101t-4 -117t-14 -126q-25 -157 -80 -157q-59 0 -89 250q-9 76 -9 124z" />
<glyph unicode="#" horiz-adv-x="1060" d="M0 542q0 47 109 72q43 10 85 13t62 5q16 70 30 139t32 137q-47 0 -103 12q-111 24 -111 58q0 47 109 72q43 10 86 14t61 6q4 14 13 46t22 72t30 82t34 77q39 81 73 81q48 0 48 -105.5t-28 -240.5q48 3 130 -2q104 348 170 348q48 0 48 -99.5t-32 -270.5q106 -18 149 -41 t43 -39q0 -40 -173 -60q-35 -4 -47 -6q-16 -72 -34 -145t-34 -145q184 -37 184 -80q0 -41 -174 -60q-36 -4 -48 -6q-107 -392 -170 -392q-29 0 -44 51q-8 28 -8 89t28 240q-32 -2 -64 -2h-64q-6 -20 -23 -81t-41 -127q-62 -170 -104 -170q-29 0 -44 51q-8 28 -8 109.5 t32 223.5q-14 2 -51 6t-75 12q-98 21 -98 56zM456 646h62q30 0 60 -2q14 64 27 129t29 129h-116q-16 -64 -31 -128t-31 -128z" />
<glyph unicode="$" horiz-adv-x="972" d="M52 374q0 46 35 76t76 30t78 -12t76 -26q106 -38 143.5 -38t61.5 3t46 12q54 22 54 63q0 49 -122 97q-209 82 -287.5 144.5t-117.5 124.5t-39 139t29 136t78 101q103 88 245 96q8 46 14 93t18 93q18 62 88 62q28 0 54 -15t26 -36t-16 -181q275 -66 326 -205q4 -11 4 -31 t-15 -39t-38 -32q-44 -25 -87.5 -25t-75.5 11t-65 23q-94 34 -133.5 34t-64.5 -4t-47 -14q-52 -24 -52 -63t42 -68t106 -60t137 -68t137 -85q148 -111 148 -260q0 -178 -190 -231q-54 -15 -108 -29q-10 -2 -11 -23t-1 -50t-1 -62t-11 -61q-24 -66 -96 -66q-38 0 -71 25 t-33 65l2 62v22q0 76 -18 82q-38 10 -94 22t-107 33q-123 51 -123 135z" />
<glyph unicode="%" horiz-adv-x="1650" d="M40 1014q0 64 23 147t68 158q106 177 253 177q158 0 238 -157q60 -118 60 -291q0 -169 -79 -304q-41 -70 -105 -117t-148 -47t-141 46t-94 112q-75 134 -75 276zM240 1006q0 -64 20 -115t41 -74t54 -23t61 28t47 68q39 82 39 164q0 122 -60 191q-20 23 -52 23t-61 -28 t-49 -68q-40 -80 -40 -166zM294 23q0 45 27 108t68 138t93 157t101 157t92 138t63 93t61 90t95 136t115 158t119 149q134 155 182 155q40 0 40 -48q0 -84 -180 -380q-36 -58 -73 -114t-70 -106t-60 -89t-42 -61t-43 -63t-65 -95q-79 -115 -149 -208.5t-115 -152.5t-87 -105 q-93 -102 -132.5 -102t-39.5 45zM950 428q0 62 23 146t67 158t107 126t148 52t143 -45t92 -113q60 -120 60 -290q0 -169 -79 -304q-41 -70 -105 -117t-148 -47t-141 45t-94 112q-73 132 -73 277zM1148 418q0 -120 61 -187q21 -23 53 -23t60 28t48 68q40 80 40 164 q0 64 -20 115t-41 74t-52 23t-60 -28t-49 -68q-40 -80 -40 -166z" />
<glyph unicode="&#x26;" horiz-adv-x="1424" d="M62 392q0 234 330 470q-84 108 -110 261q-8 47 -8 104t26 120t71 110q95 99 245 99q136 0 246 -103q112 -105 112 -245q0 -134 -137 -282q-37 -40 -73 -76q58 -88 119 -172t123 -170q154 154 255 154t101 -100q0 -128 -194 -280q152 -203 152 -282q0 -48 -34 -77t-70 -29 t-76 25t-80 59q-86 73 -134 126q-92 -60 -212 -92t-221 -32t-178 28t-134 81q-119 111 -119 303zM398 396q0 -132 136 -132q112 0 228 74q-135 177 -226 308q-138 -99 -138 -250zM530 1188q0 -97 80 -164q102 87 102 176q0 34 -37 59t-73 25q-72 0 -72 -96z" />
<glyph unicode="'" horiz-adv-x="320" d="M62 1292q0 200 88 200q62 0 90 -73q18 -47 18 -101t-4 -117t-14 -126q-25 -157 -80 -157q-59 0 -89 250q-9 76 -9 124z" />
<glyph unicode="(" horiz-adv-x="544" d="M82 669q0 121 14 205t38 167q52 180 152 369q40 76 81 108t70 32t48 -16t19 -43t-22 -66t-60 -128t-84 -254t-46 -331q0 -309 164 -660q14 -28 31 -55t17 -56t-19 -45t-51 -16t-63 20t-57 50q-45 52 -100.5 161t-93.5 273t-38 285z" />
<glyph unicode=")" horiz-adv-x="550" d="M40 -57q0 27 22 65t60 128t87 257t49 334q0 312 -158 655q-12 28 -29 55t-17 55t19 45t50 17t63 -20t58 -50q40 -46 95 -158t92 -274t37 -322v-12q0 -215 -110 -490q-138 -344 -254 -344q-22 0 -43 16t-21 43z" />
<glyph unicode="*" horiz-adv-x="940" d="M62 828q0 62 172 180q38 26 58 38q-18 12 -56 37t-75 55q-95 77 -95 115.5t64 38.5t248 -92q40 316 102 316q45 0 69 -249q5 -51 7 -67q182 84 278 84q44 0 44 -22t-30 -53t-70 -63t-78 -58t-54 -38q54 -36 113 -89t89 -88t30 -59t-32 -24q-72 0 -288 108 q0 -167 -37 -273q-15 -43 -44 -43t-48 41t-29 94t-14 104t-6 73q-24 -12 -59 -31t-73 -35q-95 -40 -140.5 -40t-45.5 40z" />
<glyph unicode="+" horiz-adv-x="962" d="M40 514q0 61 158 79q62 7 121 6t81 -1v38q0 167 47 263q19 39 50 39t47 -46t23 -104q9 -75 9 -186l152 -6q109 0 169 -31q25 -13 25 -36t-24 -36t-56 -20q-50 -11 -120 -13t-146 -2q-2 -14 -3 -43t-4 -66t-8 -76t-15 -71q-23 -75 -53.5 -77.5t-49.5 41.5t-31 101t-18 111 l-8 72q-346 0 -346 64z" />
<glyph unicode="," horiz-adv-x="368" d="M20 128q0 54 42 93t110 39t122 -38t54 -110.5t-42 -152.5q-77 -149 -136 -149q-40 0 -40 40q0 33 22 72q42 73 42 100q-30 -20 -70 -20t-72 36t-32 90z" />
<glyph unicode="-" horiz-adv-x="920" d="M40 510q0 60 189 83q108 13 191.5 13t120.5 -2t80 -7t89 -13t83 -18q85 -23 85 -56q0 -61 -400 -71q-40 -1 -56 -1q-382 0 -382 72z" />
<glyph unicode="." horiz-adv-x="370" d="M20 131q0 57 46 84t85 27t72 -10t62 -29t47 -46t18 -57t-12 -51t-31 -35q-41 -30 -80 -30t-74 11t-64 31q-69 48 -69 105z" />
<glyph unicode="/" horiz-adv-x="782" d="M20 120q0 42 32 140t76 204t90 205t66 145t49 106t67 134t82 153t87 144q99 149 151 149q42 0 42 -64t-30 -159t-72 -197q-58 -141 -115 -258.5t-87 -180.5t-70 -143t-85 -165t-89 -155q-101 -160 -148 -160q-28 0 -37 30t-9 72z" />
<glyph unicode="0" horiz-adv-x="1264" d="M30 619q0 99 22 189t63 178t98 169t128 142q155 133 318 133t269 -66t171 -171t94 -236t29 -265t-41 -271t-120 -248t-197 -180t-260 -69t-246 68t-177 173t-112 230t-39 224zM360 622q0 -129 58 -243q72 -141 188 -141q78 0 139 49t102 120t63 152t22 138t-14 125 t-43 128q-70 144 -185 144q-78 0 -139 -49t-103 -121q-88 -151 -88 -302z" />
<glyph unicode="1" horiz-adv-x="552" d="M52 1253.5q0 96.5 49 154.5t129 58t122 -56t61 -134q27 -111 27 -231.5t-2 -182.5t-5 -144t-3 -183t-4 -169t-6 -125t-15 -112q-32 -137 -119 -137q-172 0 -154 468q2 52 2 202t4 422q-86 73 -86 169.5z" />
<glyph unicode="2" horiz-adv-x="1038" d="M20 178q0 66 29 96t55 55t52 52t72 76t99 110t106 128t97 131q98 143 98 216q0 38 -22 63t-62 25t-76 -30t-72 -65t-77 -65t-98 -30t-92 36t-35 110t39 149t103 129q137 116 308 116q283 0 373 -189q31 -65 31 -147t-25 -161t-66 -159t-94 -159t-109 -151 q-98 -126 -214 -242q294 36 414 36q58 0 101 -31t43 -91t-38 -96t-95 -48t-133 -23t-155 -19q-158 -16 -233.5 -16t-104.5 1t-60 4q-74 7 -93.5 22t-30.5 36t-19 46q-16 50 -16 85z" />
<glyph unicode="3" horiz-adv-x="998" d="M52 1158q0 65 40 120q68 104 181 156t233 52q184 0 293 -100t109 -282q0 -242 -198 -308q110 -23 172 -124q54 -89 54 -204.5t-44 -209.5t-118 -163q-158 -147 -376 -147q-206 0 -304 88q-38 34 -38 90t31 88t89 32t113 -11t106 -11t95 14t79 41q79 61 79 149 q0 65 -28 117q-54 99 -112 99q-32 0 -91 -21t-91 -31t-71 -10t-60 37t-21 73q0 84 76 114q232 93 320 187q42 45 42 91t-32 84t-76 38t-82 -24t-75 -53t-76 -53t-72 -24t-57 9t-44 24q-46 35 -46 73z" />
<glyph unicode="4" horiz-adv-x="1088" d="M62 888v146q0 44 3 89t6 106t20 117q41 136 145 136q64 0 97 -120q21 -78 21 -186t-20 -224q58 4 115 7t115 7q2 20 7 81t13 130q21 183 34.5 214t47.5 56t82 25t70 -32t31 -82q13 -72 13 -193t-6 -207q96 -9 158 -22q114 -25 114 -130q0 -100 -104 -122 q-94 -22 -184 -30q-8 -78 -14 -155t-11 -133t-9 -119t-19 -123q-37 -150 -123 -150q-81 0 -116 140q-22 88 -22 165t14 357q-78 -6 -155 -6t-113 1t-72 5q-88 10 -112 48q-26 36 -26 204z" />
<glyph unicode="5" horiz-adv-x="1052" d="M72 288q0 52 32 84t83 32t85 -20t67 -45q86 -65 174.5 -65t138.5 56t50 132t-34 130t-112 54q-51 0 -99 -18q-94 -35 -123.5 -39.5t-63.5 2.5t-69 21q-84 34 -99 74q-24 72 -24 428v52q0 63 7 122.5t18 74.5t58 31t110 30t137 25t141 19q134 16 181.5 16t78.5 -7t56 -22 q57 -34 57 -93q0 -126 -210 -158q-160 -25 -300 -32l4 -290q90 18 162 18q212 0 323 -110t111 -322q0 -231 -141 -366q-138 -132 -367 -132q-143 0 -278 86q-154 98 -154 232z" />
<glyph unicode="6" horiz-adv-x="1082" d="M30 556q0 165 106 383q108 223 258 373q168 168 322 168q46 0 83 -25t37 -64t-24 -71t-57 -63t-68 -60t-68 -67q-86 -99 -139 -220q60 20 144 20t163 -42t133 -111q110 -141 110 -341q0 -224 -152 -350q-142 -118 -370 -118q-236 0 -364 183q-114 163 -114 405z M348 552.5q0 -50.5 13 -101.5t39 -95q59 -100 150.5 -100t145.5 46t54 142t-65 153t-167 57q-90 0 -154 -40q-16 -11 -16 -61.5z" />
<glyph unicode="7" horiz-adv-x="1070" d="M30 1241q0 47 33 83t86 61t118 41t128 26q101 16 169 16t133 -5t134 -16q170 -27 205 -79q12 -14 12 -45t-15 -81t-38 -113t-52 -132t-57 -132l-52 -117l-44 -99t-60 -136t-86 -186q-106 -220 -186 -307q-42 -46 -93 -46t-81 28t-30 82t27 140t64 175t77 173t80 173 t92 204t104 233q-56 8 -138 8q-146 0 -396 -50q-10 -2 -43 -2t-62 28t-29 75z" />
<glyph unicode="8" horiz-adv-x="1212" d="M20 265q0 87 26 156t71 128q84 110 229 185q-106 34 -180 116q-80 89 -80 197.5t59 189.5t149 133q177 102 392 102q162 0 273 -68q135 -82 135 -222t-73 -237t-181 -157q142 -36 237 -153q95 -116 95 -253q0 -241 -213 -374q-183 -114 -427 -114q-186 0 -336 93 q-76 47 -126 119t-50 159zM352 313q0 -43 26 -67t62 -38q67 -26 123.5 -26t103.5 9t86 30q91 49 91 137q0 132 -157 201q-43 19 -85 27q-162 -73 -226 -187q-24 -43 -24 -86zM432 1082q0 -60 63 -102q50 -33 117 -38q178 107 178 182q0 39 -51 61q-35 15 -71 15t-74 -6 t-74 -20q-88 -34 -88 -92z" />
<glyph unicode="9" horiz-adv-x="1064" d="M52 956q0 226 135 369q138 147 361 147q232 0 363 -161q61 -75 92 -175t31 -196t-27 -200t-74 -212t-110 -212t-138 -186q-166 -182 -319 -182q-44 0 -79 27t-35 62q0 46 35 91.5t81 92.5t91 94q112 117 163 219q-66 -18 -151 -18t-166 31t-137 89q-116 120 -116 320z M324 976q0 -106 57 -161t161 -55t165 46t61 152t-55 182t-159 76t-167 -67t-63 -173z" />
<glyph unicode=":" horiz-adv-x="392" d="M20 131q0 57 46 84t85 27t72 -10t62 -29t47 -46t18 -57t-12 -51t-31 -35q-41 -30 -80 -30t-74 11t-64 31q-69 48 -69 105zM20 619q0 59 46 86t85 27t72 -10t62 -29t47 -46t18 -57t-12 -51t-31 -35q-41 -30 -80 -30t-74 11t-64 30q-69 45 -69 104z" />
<glyph unicode=";" horiz-adv-x="392" d="M20 619q0 59 46 86t85 27t72 -10t62 -29t47 -46t18 -57t-12 -51t-31 -35q-41 -30 -80 -30t-74 11t-64 30q-69 45 -69 104zM24 128q0 54 42 93t109 39t121 -38t54 -116q0 -73 -42 -150.5t-73 -111.5t-61 -34q-40 0 -40 40q0 33 22 71.5t32 59.5t8 41q-24 -20 -66 -20 t-74 36t-32 90z" />
<glyph unicode="&#x3c;" horiz-adv-x="664" d="M20 492q0 54 111 172q102 109 194 176q164 122 219 122q28 0 41 -18t13 -41t-23 -59t-60 -76t-82 -83t-89 -82t-81 -71t-57 -50l63 -42q183 -122 235 -174t75 -86t23 -59t-8 -42t-38 -17t-82 22t-112 59t-121 83t-110 94q-111 109 -111 172z" />
<glyph unicode="=" horiz-adv-x="984" d="M62 661q0 21 27 37t68 26t93 16t101 9q82 5 132.5 5t115.5 -5t132 -16q169 -28 169 -73q0 -61 -402 -71q-40 -1 -55 -1h-48q-225 0 -308 40q-25 12 -25 33zM84 370q0 20 27 36t68 26t93 16t101 9q82 5 132.5 5t115.5 -5t132 -16q169 -28 169 -73q0 -61 -402 -71 q-40 -1 -55 -1h-48q-229 0 -308 41q-25 13 -25 33z" />
<glyph unicode="&#x3e;" horiz-adv-x="646" d="M40 897q0 51 46 51q100 0 317 -164q127 -96 190 -187q31 -45 31 -76t-31 -77t-79 -99t-108 -106t-118 -96q-131 -97 -188 -97q-26 0 -38 18t-12 47t49 89t114 123t129 119l96 84q-164 110 -232 163t-117 105t-49 103z" />
<glyph unicode="?" horiz-adv-x="1000" d="M40 1233q0 63 46 118t114 88q130 63 280 63q80 0 165 -35t154 -93t114 -136t45 -152t-33 -129t-82 -102q-90 -86 -217 -137q12 -96 12 -164t-1 -110t-12 -79q-26 -89 -106.5 -89t-108.5 80q-28 84 -28 294v86q0 95 20 124.5t62 54.5t87 53t79 62t34 74t-16 68t-41 47 q-54 41 -124.5 41t-114.5 -25t-75 -54t-58 -54t-72 -25t-84 34t-39 97zM364 59q0 41 17 66t43 43q52 36 107 36t93 -24t38 -67t-17 -67t-42 -40q-50 -32 -105.5 -32t-94.5 22t-39 63z" />
<glyph unicode="@" horiz-adv-x="1448" d="M30 730q0 152 55 288t153 239t232 163t285 60t271 -46t207 -131t136 -204t49 -236t-24 -208t-72 -164q-110 -167 -296 -167q-76 0 -131 54t-65 128q-4 -76 -69 -119q-60 -39 -130.5 -39t-121.5 28t-87 74q-76 97 -76 204.5t36 191.5t97 149q134 143 319 143 q108 0 180 -36q38 -19 38 -92q0 -97 -21 -195.5t-30 -139.5t-9 -79t12 -65t57 -27t83 41t63 99q49 114 49 219t-38 180t-102 124q-129 99 -330 99q-233 0 -376 -160q-138 -155 -138 -390q0 -238 139 -385q142 -151 379 -151q91 0 186.5 27t144.5 39t86 12q103 0 103 -58 q0 -68 -120 -121q-124 -55 -354 -78q-50 -5 -93 -5q-261 0 -433 149q-244 211 -244 585zM520 679q0 -31 8 -58t23 -49q34 -50 85 -50q44 0 105 54q56 49 68.5 106.5t23.5 126.5t23 139q-10 2 -21 2h-21q-124 0 -208 -72q-45 -39 -65.5 -103.5t-20.5 -95.5z" />
<glyph unicode="A" horiz-adv-x="1140" d="M52 291q0 224 92 583q114 445 320 574q64 40 141 40t133 -34t98 -90t70 -127t47 -144q19 -74 68 -325.5t49 -381.5t-7 -186t-27 -107q-47 -121 -144 -121q-74 0 -111 54t-53 129t-19 153t-5 124q-144 -24 -284 -42q-21 -241 -127 -354q-43 -46 -98 -46t-82 35t-41 83 q-20 69 -20 183zM448 694q120 10 236 30v58q0 191 -47 287q-21 43 -49 43t-46 -27t-32 -68t-25 -91t-19 -96t-12 -83t-6 -53z" />
<glyph unicode="B" horiz-adv-x="974" d="M62 554v211q0 71 2 115t3 82t2 85t4 99t8 97q11 101 35 117q151 99 338 136q60 12 124 12t133 -21t120 -63q113 -93 113 -236.5t-68 -256.5t-182 -189q172 -34 221 -207q15 -53 15 -111q0 -114 -53 -199t-137 -140q-166 -109 -392 -109q-128 0 -218 36q-54 18 -66 426 q-2 66 -2 116zM400 362q0 -36 12 -36q57 0 125 56q67 55 67 116.5t-78 61.5q-61 0 -110 -44q-10 -7 -12 -40.5t-3 -50.5t-1 -22v-41zM400 863q0 -27 10 -27q67 0 135 87q67 85 67 152t-76 67q-64 0 -112 -44q-24 -24 -24 -201v-34z" />
<glyph unicode="C" horiz-adv-x="964" d="M10 618q0 183 64 385q112 353 345 477q83 44 182 44t165 -49t106 -124t56 -164t16 -148t-9 -101t-29 -78q-47 -84 -123.5 -84t-110.5 25t-48 63t-15 81t-3 81t-13 63t-49 25t-68 -29t-52 -75t-37 -104t-24 -115q-17 -108 -17 -170.5t3 -120.5t19 -111q38 -127 140 -127 q58 0 125 23q125 43 178 43t83 -37t30 -92t-40 -110t-99 -97q-126 -90 -261.5 -90t-235.5 65t-162 168q-116 193 -116 483z" />
<glyph unicode="D" horiz-adv-x="1120" d="M62 451v126q0 79 4 158t7 122t7 97t10 113t13 110q17 123 31 143q49 82 197 134q126 44 249.5 44t220.5 -49t162 -132q127 -162 127 -417q0 -176 -72 -339t-193 -289t-282 -201t-339 -75h-4q-61 0 -98 116q-40 125 -40 339zM398 583q0 -73 7 -122t17 -49q112 0 226 162 q48 68 77 142t29 122t-16 94t-45 84q-64 84 -161 84q-42 0 -86 -20q-20 -12 -28 -84t-12 -124t-5 -99t-2 -83t-1 -52v-55z" />
<glyph unicode="E" horiz-adv-x="962" d="M52 676q0 72 5 168t19 193q33 228 114 337q41 53 278 110q215 52 314 52q62 0 103 -48q41 -47 41 -89.5t-7 -60.5t-24 -42t-81 -60t-139 -71t-144 -63t-97 -40q-8 -46 -17 -93t-13 -95q170 88 288 88q142 0 142 -140q0 -88 -95 -141q-107 -59 -182 -86t-145 -51 q-12 -48 -12 -74t4 -54l8 -56q318 106 364 106t72 -13t44 -34q40 -47 40 -95t-20 -83t-94 -81t-164 -87q-217 -99 -298 -99q-55 0 -117 33q-109 57 -139 109q-21 37 -30.5 186.5t-12.5 206.5q-5 95 -5 167z" />
<glyph unicode="F" horiz-adv-x="826" d="M62 615q0 83 1 134t2 113t4 130t7 129q9 135 29.5 178t103.5 86t185 76q232 75 357 75t125 -92q0 -132 -179 -249q-100 -66 -299 -145q0 -86 -8 -174q176 88 302 88t126 -108q0 -113 -160 -210q-101 -61 -260 -112q0 -328 -35 -433q-37 -111 -115 -111q-136 0 -177 444 q-9 98 -9 181z" />
<glyph unicode="G" horiz-adv-x="1066" d="M0 583q0 115 17 218t51 204t86 194t123 164q157 157 359 157q137 0 234 -99q94 -96 94 -237v-18q0 -124 -19 -181t-51 -92t-96 -35q-136 0 -136 138l4 112q0 42 -14 65t-61 23t-87 -32t-70 -84t-52 -118t-36 -133q-26 -124 -26 -197.5t4 -120.5t17 -90q31 -103 105 -103 t118 45t60 115q-105 15 -142 81q-14 25 -14 73t42 83t99 53q89 28 213 28q173 0 260 -58q36 -24 36 -62q0 -76 -41 -131t-121 -65q-43 -214 -157 -364q-139 -182 -337 -182q-146 0 -260 118q-97 101 -153 269q-49 147 -49 262z" />
<glyph unicode="H" horiz-adv-x="1092" d="M62 214.5q0 103.5 10 222.5t14 242q3 98 3 199v51v61q0 87 2 151q3 85 4 141t14 105q31 117 137 117q150 0 192 -157q18 -67 18 -142v-135q0 -80 -4 -157t-8 -155l214 32q6 288 10 360t6 124t16 96q32 102 146 102q97 0 147 -110q37 -81 37 -192v-26q0 -279 -15 -487.5 t-17 -259.5t-8 -110t-16 -119t-31 -109q-48 -111 -135 -111q-81 0 -130 65q-46 61 -46 135q0 142 16 274l-198 -20q-6 -52 -13 -125t-28 -140q-51 -163 -179 -163q-83 0 -124 75q-34 62 -34 165.5z" />
<glyph unicode="I" horiz-adv-x="720" d="M-30 58q0 76 62 134q51 48 134 66q37 287 41.5 420.5t8.5 244.5t8 223q-28 -4 -52 -4t-56 6t-60 21q-66 35 -66 98t57 107t136 68q138 42 293 42q161 0 243 -60q33 -24 33 -64t-17 -70t-45 -51q-55 -41 -128 -55q-8 -473 -58 -870h12q115 0 159 -73q15 -25 15 -66 t-29 -75t-76 -58t-105 -40t-116 -25q-110 -17 -194 -17q-200 0 -200 98z" />
<glyph unicode="J" horiz-adv-x="872" d="M-52 478q0 181 97 267q35 31 91 31t85 -32t42 -79t17 -102t10 -102t21 -79t54 -32t63 36t35 85q17 76 17 182q0 197 -96 545q-16 58 -16 121t36 106t97 43t91 -21t68 -72t69 -131t49 -166q34 -162 34 -334v-50q-9 -316 -70 -481q-60 -160 -194 -225q-70 -34 -174 -34 t-185 46t-135 121q-106 147 -106 357z" />
<glyph unicode="K" d="M52 200v16q0 118 13 237t17 258q18 614 38 683q21 72 79 104q29 16 80 16t82 -44t43 -106q11 -57 11 -118v-10q-1 -66 -1 -151t-6 -211q167 138 270 341q82 162 162 240q48 47 102 47q112 0 112 -120q0 -225 -187 -483q-53 -73 -107 -127q64 -108 144 -260t97 -190 t31 -78q32 -91 32 -152q0 -130 -114 -130q-79 0 -157 97q-49 61 -95 156t-87 179t-81 170l-120 -74v-23q0 -46 -6 -93q-8 -58 -12 -107t-13 -96t-29 -88q-47 -97 -138 -97q-82 0 -125 68q-35 55 -35 146z" />
<glyph unicode="L" horiz-adv-x="1004" d="M62 598.5q0 55.5 3 126.5t9 152t16 165t23 159q28 159 73 229q38 54 87 54t77 -27t45 -70t26 -96t13 -105t4 -96v-70l-14 -618v-78q251 78 398 78q87 0 123 -17q69 -33 69 -109q0 -93 -147 -174q-113 -63 -247 -95q-216 -53 -283 -53t-110 7t-65 25t-34 60t-23 100 t-19 125t-13 131q-11 141 -11 196.5z" />
<glyph unicode="M" horiz-adv-x="1526" d="M72 526q0 118 7 209t23 191t42 200t63 179q84 179 199 179q98 0 259 -383q45 -107 87 -239q152 456 307 587q39 33 94 33t105 -52t84 -135t54 -186t31 -204q17 -156 17 -255v-136q0 -572 -158 -572q-102 0 -183 569q-24 166 -41 379q-105 -668 -234 -834q-34 -44 -70 -44 t-70 46t-66 121t-60 167t-52 185q-45 173 -70 315l-2 -166q0 -480 -118 -660q-34 -52 -84 -56q-104 47 -140 286q-24 158 -24 276z" />
<glyph unicode="N" horiz-adv-x="1296" d="M62 509q0 71 4 160t17 197t34 222t55 207q77 211 194 211q105 0 198 -162q38 -66 64 -138t52 -143q66 -180 94 -269q46 -146 68 -200l-2 57v67q-4 132 -4 262q0 512 170 512q91 0 146 -135q72 -177 72 -499q0 -248 -50 -501q-43 -218 -130 -318q-46 -53 -108 -53t-112 35 t-90 86q-65 83 -113.5 200t-90.5 216t-80 201v-56q0 -242 -9 -308t-14 -111t-15 -89q-24 -107 -80 -138q-18 -10 -33 -12t-33 -6h-6q-147 0 -187 341q-11 93 -11 164z" />
<glyph unicode="O" d="M40 684q0 316 126 544q64 116 162 190t232 74t223 -71t142 -184q99 -211 99 -533q0 -330 -125 -540q-137 -230 -378 -230q-125 0 -215 61t-149 164q-117 204 -117 525zM398 743q0 -105 9 -175t27 -126q40 -124 110 -124q75 0 111 150q25 103 25 197.5t-7 154.5t-23 111 t-42 85t-65 34t-66 -30t-45 -79q-34 -93 -34 -198z" />
<glyph unicode="P" horiz-adv-x="976" d="M62 413v180q0 453 12 597t17 150t15 13t22 14t22 13t58 33t158 65t210 38t175 -37t128 -98t81 -142t28 -178t-47 -201t-125 -187t-178 -136t-206 -59q-2 -36 -3 -91t-7 -115t-17 -120t-32 -108q-47 -108 -135 -108q-137 0 -162 235q-14 133 -14 242zM414 1080 q13 -149 13 -230q0 -24 -1 -42q95 48 134 79q82 67 82 139q0 100 -87 100q-49 0 -141 -46z" />
<glyph unicode="Q" horiz-adv-x="1090" d="M40 684q0 316 126 544q64 116 162 190t232 74t223 -71t142 -184q99 -211 99 -499t-80 -480q104 -138 104 -248v-12q-2 -40 -30 -61q-24 -18 -49 -18h-7q-28 3 -57 18q-55 28 -117 95q-115 -98 -253.5 -98t-228.5 61t-149 164q-117 204 -117 525zM398 743q0 -105 9 -175 t27 -126q40 -124 110 -124q16 0 28 6q-53 91 -53 157q0 24 6 44q9 29 34 47q19 14 43 14q31 0 70 -24q8 80 8 139t-7 119t-23 111q-37 119 -108 119q-70 0 -110 -109q-34 -93 -34 -198z" />
<glyph unicode="R" horiz-adv-x="1046" d="M62 370l8 370l-6 346v51q0 132 24 175q36 75 247 147q185 63 287 63t180 -38t130 -103q104 -130 104 -329q0 -257 -234 -442q121 -182 171 -389q17 -71 17 -133t-31 -113t-99 -51t-113 60t-80 143t-64 169t-55 138q-36 -12 -70 -27t-70 -29q-8 -181 -27 -265.5 t-53 -140.5t-97 -56t-99 54t-51 128q-19 94 -19 272zM408 1084q6 -126 6 -252v-62q163 54 228 162q24 40 24 92q0 106 -102 106q-69 0 -156 -46z" />
<glyph unicode="S" horiz-adv-x="724" d="M10 47q0 57 22 96t54 75t71 70t71 68q76 81 76 144.5t-41 124.5t-91 126t-91 133t-41 146t46 173t118 174t162 131t169 52t129 -42t50 -101q0 -95 -98 -149q-102 -62 -139 -98q-77 -75 -77 -160q0 -64 69 -143q29 -33 64 -68t64 -78q69 -102 69 -223q0 -101 -78 -240 q-75 -134 -189 -231q-123 -105 -231 -105q-62 0 -110 34t-48 91z" />
<glyph unicode="T" horiz-adv-x="762" d="M-102 1204.5q0 61.5 47 106.5t120 78t162 56t176 36q167 25 239 25t115 -3t81 -17q88 -32 88 -120t-133 -163q-99 -56 -209 -79q-34 -327 -34 -614l8 -322q0 -156 -78 -224q-30 -26 -78 -26t-79 29t-48 71q-29 72 -33 243t-4 344t1 271t1 200q-56 -8 -98 -8t-81 5t-75 18 q-88 32 -88 93.5z" />
<glyph unicode="U" horiz-adv-x="1204" d="M52 722v26q0 12 2 38t7 98t17 154t31 168t50 154q71 156 179 156q79 0 123 -91q35 -72 35 -143.5t-11 -126.5t-24 -125q-33 -178 -33 -278t5 -166t25 -127q48 -147 158 -147q62 0 99 42t55 100q28 90 28 227q0 239 -80 523q-24 82 -24 137t33 97t88 42t98 -39t77 -102 t59 -141t43 -155q32 -139 38 -261q2 -20 2 -39v-71q0 -273 -91 -463q-118 -247 -397 -247q-150 0 -261 70t-185 179t-110 244t-36 267z" />
<glyph unicode="V" horiz-adv-x="994" d="M20 1264q0 108 20 153t49 68t77 23t85 -49t67 -127t55 -174t47 -189q58 -246 82 -303q12 40 35 117t54 169t68 189t78 176q93 179 175 179q112 0 112 -194q0 -50 -18 -139t-45 -181t-58 -179t-51 -144t-39 -122t-44 -137t-55 -144t-66 -129q-81 -129 -172 -129 q-131 0 -277 410q-59 164 -143 537q-36 159 -36 319z" />
<glyph unicode="W" horiz-adv-x="1310" d="M52 1055q0 77 2 136t15 116t40 100t75 46h7q43 0 73 -35q32 -38 54 -101t35 -140t20 -149q10 -108 10 -176q0 -24 -1 -44l-2 -52q30 130 80 280t78 212q64 142 110 146h3q109 0 198 -457q15 -77 23 -139t12 -88q12 197 50 357.5t66 234.5q64 168 144 168q146 0 146 -296 q0 -188 -54 -468q-6 -30 -18 -97t-29 -149t-41 -170t-53 -160q-67 -166 -139 -166q-133 0 -247 425q-29 107 -51 219q-8 -26 -25 -83t-43 -128t-58 -145t-67 -136q-80 -142 -149 -142q-130 0 -196 311q-40 190 -52 437q-16 256 -16 333z" />
<glyph unicode="X" horiz-adv-x="980" d="M-20 116q0 87 70 222q98 208 206 412q-52 109 -102 249q-96 270 -96 346q0 165 120 165q92 0 170 -129q20 -33 43 -83t57 -121t64 -147q208 365 361 463q45 29 87 29t62 -40t20 -80t-16 -90t-40 -101q-31 -66 -100 -185q-46 -86 -92 -173t-98 -173q140 -237 215 -444 q29 -80 29 -126t-22 -81t-72 -35t-105 45t-104 107q-66 83 -155 232q-34 -44 -69 -86t-63 -78t-59 -75t-68 -77q-88 -90 -151 -90q-69 0 -87 80q-5 22 -5 64z" />
<glyph unicode="Y" horiz-adv-x="890" d="M20 1278q0 56 8 99t27 80q45 87 127 87q92 0 163 -138t117 -412q10 -60 18 -94q51 190 110.5 323t98.5 197q89 146 173 146q54 0 81 -74q19 -52 19 -128t-23 -182t-59 -214q-62 -187 -119 -310.5t-86 -190.5t-65 -143t-77 -153t-85 -138q-100 -139 -182 -139 q-64 0 -91 47t-27 105q0 167 196 468q-40 10 -78 36t-56 62q-122 267 -172 519q-18 91 -18 147z" />
<glyph unicode="Z" horiz-adv-x="878" d="M10 1209.5q0 56.5 34 100.5t89 80t124 64t139 46q148 38 252 38t178 -46t74 -168q0 -39 -228 -511q-44 -91 -86 -179t-77 -159t-59 -120t-30 -61q143 46 258 46q132 0 187 -65q21 -25 21 -68t-30 -78t-77 -61t-107 -44t-120 -30q-110 -22 -180 -22t-125 4t-105 22 q-116 42 -116 152q0 78 84 273q45 106 121.5 249.5t145.5 268.5t135 253q-186 -106 -330 -106q-63 0 -102 23q-70 42 -70 98.5z" />
<glyph unicode="[" horiz-adv-x="546" d="M82 1030v106q0 261 25 382q7 34 17 42q42 28 130 28q138 0 201 -60q25 -24 25 -56t-14 -53t-35 -35q-42 -28 -77.5 -28t-43.5 2l4 -304t2 -304t7 -303t13 -301q131 -5 178 -92q12 -24 12 -44q0 -57 -95 -89q-69 -23 -113 -23t-65 2t-40 7q-47 12 -61 41q-38 63 -62 779 q-8 238 -8 303z" />
<glyph unicode="\" horiz-adv-x="692" d="M20 1395q0 81 50 81q68 0 216 -329q123 -273 172 -411q214 -527 214 -702q0 -80 -44 -80q-50 0 -142 156q-125 213 -242 540q-26 68 -64 166t-74 201t-61 200t-25 178z" />
<glyph unicode="]" horiz-adv-x="516" d="M20 1484q0 34 22 57t53 37q58 26 108 26q132 0 161 -58q39 -85 62 -772q8 -236 8 -305v-108q0 -261 -25 -386q-7 -35 -17 -43q-39 -26 -130 -26q-137 0 -201 59q-25 23 -25 56t14 54t35 35q42 28 97 28h24q-8 304 -8 610t6 616q-123 0 -167 62q-17 24 -17 58z" />
<glyph unicode="^" horiz-adv-x="920" d="M30 1003q0 29 21 78t56 106t78 116t88 106q102 107 163 107q53 0 166 -104q170 -156 260 -319q26 -47 26 -73t-17 -39t-45 -13t-85 47t-117 109q-82 84 -194 214q-24 -34 -66 -97t-90 -126q-120 -157 -188 -157q-22 0 -39 8t-17 37z" />
<glyph unicode="_" horiz-adv-x="1002" d="M0 43q0 52 40 63q49 19 470 29q44 1 69 1h79q225 0 300 -20q44 -11 44 -75q0 -31 -43 -44t-106 -20t-130 -10t-133 -3h-191t-142 1q-138 2 -187.5 11.5t-59.5 26.5t-10 40z" />
<glyph unicode="`" horiz-adv-x="432" d="M62 1455.5q0 34.5 22 57.5t52 23q57 0 147 -92q37 -38 62 -80t25 -65q0 -41 -42 -41q-36 0 -75 23t-62 37t-44 28t-40 32q-45 43 -45 77.5z" />
<glyph unicode="a" horiz-adv-x="970" d="M10 288.5q0 103.5 59 175.5t145 123q161 95 356 121l2 36q0 62 -34 100t-90 38t-92 -17t-68 -38t-64 -38t-74 -17t-73 28t-31 83t39 109t98 91q126 79 255 79q178 0 297 -119q113 -113 155 -418q20 -145 20 -343q0 -342 -148 -342q-74 0 -114 48q-38 46 -38 113v7 q-137 -120 -310 -120q-111 0 -202 100q-88 97 -88 200.5zM342 326q0 -48 65.5 -48t182.5 68l-6 136l-16 2q-63 0 -120 -36q-106 -68 -106 -122z" />
<glyph unicode="b" horiz-adv-x="1068" d="M72 454v68q0 134 2 221q1 58 1 108v47.5v46.5q0 49 1 104q2 83 9 170t25 159q41 162 132 166q133 0 161 -319q7 -80 7 -191l-2 -72v-64q36 77 128 138q96 64 178 64t139 -43t91 -109q62 -120 62 -288q0 -226 -87 -428q-67 -155 -180 -220q-59 -34 -137 -34 q-161 0 -264 142q-6 -54 -44 -95t-96 -41q-126 0 -126 470zM380 436q70 -100 182 -100q79 0 119 97q31 75 31 167q0 104 -47 144q-19 16 -50 16t-62 -14t-59 -36q-54 -42 -94 -96z" />
<glyph unicode="c" horiz-adv-x="854" d="M20 508q0 102 28 221t86 221t149 170t217 68q146 0 229 -123q75 -111 75 -257v-20t-1 -20q-7 -72 -55 -111t-100 -39q-78 0 -106 78q-4 10 -4 23t-2 27v58q-4 28 -14 44t-39 16t-60 -43t-54 -102q-51 -131 -51 -221q0 -152 53 -225q21 -29 55 -29q50 0 120 70 q26 24 57 50t76 26t74 -36t29 -93t-36 -116t-90 -102q-117 -93 -235.5 -93t-193.5 54t-121 137q-86 155 -86 367z" />
<glyph unicode="d" horiz-adv-x="994" d="M30 528q0 60 6 124t21 130t39 129t61 113q81 110 205 110q72 0 138 -42t100 -104l18 318q7 129 21.5 180.5t42.5 83.5t84 32t88 -28t48 -71q21 -60 20.5 -196.5t-11.5 -280.5t-11 -290l14 -468q0 -107 -12.5 -156.5t-38 -79.5t-78.5 -30t-92 45t-49 101 q-38 -72 -110 -122t-159 -50t-152 62t-108 150t-64 184t-21 156zM310 582q0 -160 50 -250q20 -36 54 -36q79 0 182 116v16l-2 180q-37 79 -63 111q-58 67 -115 67q-106 0 -106 -204z" />
<glyph unicode="e" horiz-adv-x="918" d="M30 556q0 100 28 214t85 210t144 160t207 64q142 0 238 -88q102 -93 102 -230q0 -185 -146 -318q-143 -130 -328 -138q15 -110 140 -110q58 0 152 65q36 25 71 45t73 20t70 -26t32 -81t-43 -120t-108 -116q-144 -113 -262.5 -113t-201.5 53t-139 135q-114 167 -114 374z M348 698q226 48 226 143q0 31 -14 59t-51 28t-67 -23t-50 -58q-39 -69 -44 -149z" />
<glyph unicode="f" horiz-adv-x="764" d="M-72 741q0 39 29 69t70 49q57 26 165 39v32q0 413 208 577q80 63 204 63q145 0 226 -119q68 -100 68 -255q0 -190 -154 -190q-116 0 -116 132q0 82 -15 107t-46 25t-50 -46t-31 -106q-20 -100 -20 -194q65 10 102 10q114 0 156 -61q16 -23 16 -58t-31 -63t-74 -47 q-79 -35 -157 -47q6 -138 6 -274t-6 -264q-4 -62 -43 -102t-87 -40t-72 13t-40 35q-32 44 -39 136q-17 228 -17 404v52q-14 -2 -27 -2h-27q-112 0 -176 64q-22 22 -22 61z" />
<glyph unicode="g" horiz-adv-x="1048" d="M20 -364q0 46 33 85t75 39t71 -11t58 -25q75 -36 130 -36t105 37t80 94q50 96 66 251q-70 -80 -190 -80t-194 37t-120 102q-90 127 -90 337q0 226 117 454q81 158 208 228q65 36 142 36t136 -44t69 -124q65 124 146 124q104 0 104 -396v-62q0 -516 -62 -795 q-51 -230 -153 -351q-130 -154 -343 -154q-125 0 -247 66q-141 76 -141 188zM332 538q0 -152 56 -228q22 -30 67 -30t85 26t67 66t41 88t14 85t-9 85t-26 92q-42 108 -105 108q-82 0 -140 -109q-50 -94 -50 -183z" />
<glyph unicode="h" horiz-adv-x="1050" d="M73 450q1 52 1 85t3 125t13 205t26 233t42 219q58 221 147 221h3q104 -7 133 -279q7 -66 7 -133q0 -120 -8 -224q46 62 123 102t166 40t140 -55t73 -136t24 -172t2 -144t-1 -120t-6 -140q-12 -182 -30.5 -226.5t-44.5 -72.5t-82 -28t-86 54t-40 134q-8 67 -8 143v31 q1 31 1 61q0 60 -3 113q-4 80 -22 134t-75 54t-92 -21t-50 -55t-18 -78t-7 -91t-6 -125t-18 -154t-53 -131t-109 -55q-145 0 -145 434v52z" />
<glyph unicode="i" horiz-adv-x="488" d="M72 456v165q0 375 106 487q34 36 86 36q142 0 142 -428v-59l-4 -150q0 -502 -182 -509h-4q-65 0 -103 113q-41 123 -41 345zM132 1354q0 56 52 91q45 31 93.5 31t80.5 -18t32 -54t-15 -58t-39 -39q-49 -35 -97 -35q-107 0 -107 82z" />
<glyph unicode="j" horiz-adv-x="540" d="M-338 -434q0 64 34 96t84 56t109 53t109 87q118 137 118 418q0 196 -10 327q-18 236 -18 289.5t10 93.5t30 73q45 75 126 75q89 0 137 -135q47 -132 47 -401v-90q0 -263 -24 -409.5t-64 -250.5t-96 -158t-110 -96t-115 -78q-139 -82 -241 -82q-126 0 -126 132zM140 1334 q0 56 53 91q48 31 94.5 31t79.5 -19t33 -54t-16 -58t-40 -39q-51 -34 -98 -34q-106 0 -106 82z" />
<glyph unicode="k" horiz-adv-x="958" d="M62 330q0 148 8 296t10 296q0 576 202 576q136 0 136 -388v-70l-4 -196q0 -32 4 -46q22 0 83 69t104 116t88 89q103 96 171 96q40 0 62 -28t22 -74t-29 -104t-70 -115t-86 -108t-79 -93q144 -226 215 -432q27 -78 27 -125t-26 -82t-66 -35t-75 29t-70 76t-67 105t-59 114 q-43 90 -81 184q-26 -26 -55 -43t-57 -39q0 -284 -70 -397q-34 -55 -100 -55q-138 0 -138 384z" />
<glyph unicode="l" horiz-adv-x="526" d="M72 718q0 217 43 437q37 187 112 274q39 45 88 45t72 -29t33 -70q14 -57 14 -164t-9 -216t-9 -235t9 -268t9 -286q0 -254 -148 -254q-124 0 -179 330q-35 210 -35 436z" />
<glyph unicode="m" horiz-adv-x="1346" d="M61 636v30q0 45 2 96q3 68 11 139t26 129q41 132 122 132q52 0 85 -28t33 -84q0 -26 -4 -46q83 121 202 169q42 17 83 17t73 -22t56 -55q49 -67 62 -143q75 135 187 184q41 18 84 18t73 -30t52 -77t34 -106t20 -116q12 -85 12 -153v-133q0 -410 -100 -535 q-32 -40 -79 -40t-70 37t-33 87q-12 60 -12 184l12 352v36q0 60 -13 89t-40 29t-49 -37t-36 -87q-19 -69 -25.5 -133.5t-9.5 -116.5t-8 -114t-16 -127t-28 -118q-39 -121 -107 -121q-130 0 -130 344l2 132v46q0 308 -60 308q-47 0 -86 -111q-34 -96 -34 -153v-12 q0 -96 12 -188t12 -168t-36 -123t-100 -47q-178 0 -178 578q0 30 -1 88z" />
<glyph unicode="n" horiz-adv-x="956" d="M52 812q0 156 15 219t47 105t94 42q48 0 89 -62q27 -41 45 -108q103 144 280 144q180 0 243 -171q39 -105 39 -309q0 -183 -60 -415q-81 -313 -216 -313q-58 0 -84 102q-16 64 -16 134t7 130t16 120q23 153 23 240q0 162 -76 162q-32 0 -81 -95q-45 -88 -45 -129l2 -180 v-116q-5 -89 -14.5 -136.5t-21.5 -80.5t-31 -58q-43 -57 -95 -57t-78 26t-42 67t-23 92t-10 100q-2 37 -2 69v21q1 41 1 65v94z" />
<glyph unicode="o" horiz-adv-x="916" d="M30 524q0 242 106 425q54 93 138 152t198 59t193 -61t127 -152q84 -159 84 -352q0 -125 -35 -265q-58 -230 -211 -334q-80 -54 -186 -54t-182 54t-128 138q-104 168 -104 390zM338 571.5q0 -69.5 9 -125.5t25 -103q37 -109 92 -109q60 0 92 106q26 85 26 166.5t-8 134.5 t-23 99q-35 106 -91 106q-55 0 -91 -110q-31 -95 -31 -164.5z" />
<glyph unicode="p" horiz-adv-x="1038" d="M62 582v75q0 332 90 438q28 33 68 33q83 0 124 -150q126 142 316 142q171 0 253 -188q63 -144 63 -336q0 -222 -83 -388q-105 -210 -301 -210q-159 0 -198 90l-18 -288q-2 -46 -3 -110t-16 -122q-36 -140 -151 -140q-140 0 -140 538v82zM376 584q0 -128 18 -164 q10 -30 52 -51q66 -33 109 -33t69 32t41 76q25 73 25 168q0 120 -60 163q-24 17 -66 17t-95 -31t-71 -59q-22 -34 -22 -118z" />
<glyph unicode="q" horiz-adv-x="1026" d="M30 458v12q0 104 32 225t95 225t158 173t221 69q68 0 125 -28t81 -92q36 104 134 104q66 0 93 -43t27 -80t-2 -55t-11 -101t-25 -227t-24 -299q-6 -124 -6 -244v-59q2 -148 2 -251t-1 -161t-15 -112q-34 -130 -138 -130q-94 0 -126 204q-12 94 -12 268v268 q-46 -60 -119 -91t-154 -31t-146 43t-107 110q-82 131 -82 303zM310 536q0 -118 51 -169q19 -19 47 -19t63 13t69 34q75 46 96 97q13 31 18.5 111.5t5.5 100.5t-11 51t-29 60t-42 48t-59 19t-75 -37t-70 -90q-64 -113 -64 -219z" />
<glyph unicode="r" horiz-adv-x="864" d="M52 806q0 131 22 188.5t57 89.5t83 32t72 -22t39 -54q28 -60 33 -134q48 78 108 127t156 53h16q94 0 165 -45q87 -56 91 -159v-11q0 -56 -38 -87q-42 -34 -86 -36h-18q-30 0 -46 5q-20 7 -39 15q-49 20 -80 20h-5q-32 -2 -63 -22t-56 -50q-48 -58 -63 -111 q-20 -75 -21 -170t-1 -147t-3 -83t-11 -74t-25 -81q-40 -90 -117 -90q-149 0 -159 427q0 22 -0.5 41.5t0.5 37.5q1 36 1 58z" />
<glyph unicode="s" horiz-adv-x="666" d="M-40 112q0 95 78 136q34 18 73 28t73 25q78 34 78 107q0 42 -33 87t-73 96t-73 109t-33 136t35 151t94 127q127 116 295 116q117 0 157 -67q15 -25 15 -73t-39 -76t-87 -53t-87 -59t-39 -86t17 -78t42 -47t55 -43t55 -50q59 -66 59 -158t-43 -173t-110 -144t-151 -101 t-166 -38q-192 0 -192 128z" />
<glyph unicode="t" horiz-adv-x="768" d="M-72 941q0 47 27 75t69 48q81 39 184 48q0 246 94 350q36 40 80 40t69 -19t41 -48q32 -58 32 -117q0 -96 -28 -204q51 6 76.5 6t62.5 -6t68 -20q71 -32 71 -92q0 -66 -102 -112q-79 -36 -188 -46q-12 -82 -17 -151t-10 -121q-11 -114 -11 -149t2 -70t14 -67 q29 -78 110 -78l118 10q98 0 98 -128q0 -115 -173 -152q-47 -10 -89 -10q-258 0 -339 142q-39 68 -47 164t-8 243t24 363l-70 -2q-64 0 -111 28t-47 75z" />
<glyph unicode="u" horiz-adv-x="998" d="M40 564q0 156 51 327q39 130 106 207q35 40 76 40t65 -22t38 -55q22 -52 22 -117q0 -77 -15 -168q-29 -174 -29 -270q0 -218 114 -218q132 0 148 188q4 48 4 112t-12 149q-24 170 -24 200.5t10 60.5t28 54q40 54 93 54t87 -31t57 -80t38 -110t24 -120q15 -98 15 -200.5 t-22 -210.5t-74 -193q-116 -189 -356 -189q-238 0 -351 186q-93 153 -93 406z" />
<glyph unicode="v" horiz-adv-x="996" d="M10 920q0 90 28 140t110 50q103 0 186 -250q18 -52 34 -108q66 -230 110 -306q115 295 168 399q133 255 236.5 255t103.5 -122q0 -97 -58 -249q-153 -398 -254 -581q-102 -186 -222 -186q-97 0 -207 193q-74 130 -108 236q-74 229 -91 295q-36 144 -36 234z" />
<glyph unicode="w" horiz-adv-x="1480" d="M62 894q0 118 20 166t49 69t76 21t80 -34t55 -89t36 -124t22 -140q9 -77 16 -253q18 64 63 183t76 187t62 122q70 122 119 122h2q64 0 136 -122q95 -161 184 -516q23 668 262 668q56 0 83 -39t27 -97t-15 -158t-41 -217t-61 -236t-77 -215q-95 -218 -180 -218 q-112 0 -204 231q-63 157 -100 361q-65 -161 -142.5 -287.5t-120.5 -178.5q-96 -116 -169 -116q-141 0 -211 374q-47 252 -47 536z" />
<glyph unicode="x" horiz-adv-x="904" d="M0 96q0 88 165 356q37 60 57 94q-106 190 -153 347q-19 63 -19 107t28 72t76 28t92 -39t82 -94q45 -65 114 -211q97 146 158 213q139 155 228 155q34 0 55 -29t21 -62t-12 -68t-30 -71t-38 -69t-48 -79t-67 -112t-79 -130q128 -200 158 -273t30 -110t-28 -71t-69 -34 t-84 30t-84 71t-75 86t-58 75q-26 -28 -67 -76t-88 -94q-114 -112 -175 -112q-42 0 -66 30t-24 70z" />
<glyph unicode="y" horiz-adv-x="1060" d="M32 712q12 259 96 369q34 44 78 44h6q48 -3 72 -34t39 -77t22 -101t9 -109q1 -36 1 -68v-31q-1 -45 -1 -74t2 -63t14 -61q26 -59 108 -59q132 0 148 175q4 45 4 79v74q0 177 31 249q34 79 105 79q164 0 210 -431q14 -131 14 -226t-6 -202t-23 -220t-51 -222t-89 -195 t-135 -138t-192 -52t-224 58q-128 66 -128 160q0 42 27 66q47 42 80 42q45 0 87 -17q81 -33 125.5 -33t81.5 34t63 89t42 122t25 133q12 85 19 218q-70 -106 -139 -163t-157 -57t-145 32t-97 84t-66 119t-39 139q-19 105 -19 202q0 34 2 66z" />
<glyph unicode="z" horiz-adv-x="938" d="M0 883.5q0 42.5 32 73.5t84 56t116 44t126 32q119 25 182.5 25t117.5 -8t105 -28q123 -48 123 -140q0 -50 -38 -110t-83 -127t-98 -144t-101 -145q-96 -136 -132 -190q194 52 336 52q116 0 166 -39q22 -17 22 -52t-33 -65t-84 -54t-116 -40t-128 -26q-126 -20 -209 -20 q-364 0 -364 140q0 103 198 363q118 155 184 234t92 115q-28 -6 -71 -17t-89 -21q-110 -24 -148 -24t-68 9t-57 25q-65 39 -65 81.5z" />
<glyph unicode="{" horiz-adv-x="596" d="M62 712q0 46 12 73t37 39t42 38t29 56q28 70 28 127t-17 132t-17 140t16 117t48 91q71 87 182 87q62 0 104 -29t42 -89q0 -105 -114 -148q-42 -15 -42 -77.5t12 -115.5t12 -94t-6 -87t-20 -93q-33 -112 -88 -139q61 -22 97 -65q63 -77 63 -126t-9 -88t-21 -78 q-30 -97 -30 -151q0 -116 86 -116q36 0 62 -33t26 -69t-17 -62t-44 -41q-52 -29 -125 -29q-128 0 -182 73t-54 170t19 161t19 135t-23 107t-52 60t-52 51t-23 73z" />
<glyph unicode="|" horiz-adv-x="442" d="M102 994v65q0 333 63 435q21 34 49 34t47 -53t33 -135t22 -181t13 -191q9 -166 10 -237t1 -109v-78q0 -463 -68 -606q-20 -42 -50 -42q-95 0 -113 541q-3 89 -3 158v97z" />
<glyph unicode="}" horiz-adv-x="586" d="M0 1464q0 36 17 62t44 42q51 30 125 30q126 0 180 -74t54 -171t-19 -161t-19 -135t26 -120t71 -93t45 -115q0 -74 -58 -101q-50 -28 -77 -131q-7 -27 -7 -74t18 -122t18 -140t-16 -117t-47 -91q-69 -87 -181 -87q-62 0 -104 29t-42 90q0 102 112 149q44 16 44 78t-13 115 t-13 95t5 84t17 84q27 96 84 126q-49 14 -102 93q-48 72 -48 120.5t9 87.5t21 79q30 100 30 152q0 114 -86 114q-36 0 -62 33t-26 69z" />
<glyph unicode="~" horiz-adv-x="1046" d="M30 532q0 36 32 67t76 51q92 42 154 42t108 -19t94 -42q127 -61 190.5 -61t100.5 12t67 27t52 27t44 12t45 -23t23 -47q0 -39 -27 -58.5t-66 -38.5t-84 -35q-107 -38 -160 -38t-101 20t-91 44t-83 44t-77 20t-66 -13t-54 -29t-47 -29t-49 -13t-54 22t-27 58z" />
<glyph unicode="&#xa1;" horiz-adv-x="498" d="M60.5 465q1.5 105 1.5 141t4 92t13 122t24 133t37 122q49 123 116 123q128 0 169 -395q11 -105 11 -175t1 -134t-3 -138t-14 -150t-33 -137q-52 -137 -161 -137q-123 0 -152 281q-15 147 -13.5 252zM110 1379q0 43 16 68t41 42q49 33 105 33t95 -23t39 -64t-17 -66 t-43 -43q-52 -36 -106 -36t-92 23t-38 66z" />
<glyph unicode="&#xa2;" horiz-adv-x="868" d="M30 661q0 197 102 351t296 252q2 2 6 19t9 38t9 41t6 26q26 64 86 64q26 0 47 -13t21 -41t-9 -61t-9 -53v-2q107 -21 171 -151q53 -108 53 -233q0 -56 -40 -98t-86 -42q-117 0 -113 117q2 72 -14.5 96.5t-60.5 24.5t-87 -36t-73 -89q-64 -113 -64 -211q0 -96 34 -161 t68 -96t76 -31t72 22t57 49t55 50t67 23t64 -33t25 -80t-31 -102t-79 -99q-107 -98 -214 -98q-8 0 -9 -20t-2 -41t-10 -40q-18 -37 -79 -37q-22 0 -46 12t-24 40l8 98v13q0 9 -4 13q-140 92 -209 207t-69 312z" />
<glyph unicode="&#xa3;" horiz-adv-x="1072" d="M-20 743q0 37 22 57t54 29q46 13 132 13q4 239 99 362q108 140 335 140q138 0 265 -81q143 -91 143 -223q0 -40 -27 -64q-47 -42 -86 -42t-59 20t-51 58t-83 72t-107 34t-86 -23t-50 -59q-37 -70 -37 -158v-32q26 -2 83 -6t114 -15q143 -28 143 -89q0 -43 -50 -73 q-77 -46 -266 -37q2 -30 4 -54t3 -49t3 -49t3 -56t5 -66q177 -38 276 -38l158 16q40 0 74 -23t34 -66t-38 -69t-89 -41q-152 -45 -252 -19q-31 8 -60 17q-81 25 -121 25t-77 -9t-72 -19q-98 -28 -142.5 -28t-76.5 42t-32 82t16 60t40 34q30 18 98 38q16 48 16 126t-16 148 q-134 0 -213 57q-29 21 -29 58z" />
<glyph unicode="&#xa4;" horiz-adv-x="888" d="M-20 178q0 85 132 264q-8 44 -8 102t14 120q-116 195 -116 286q0 42 30 66t82 24q87 0 174 -96q74 52 171 52t171 -52q56 50 99 71t90 21t69 -27t22 -69q0 -77 -96 -198l-38 -52q33 -159 -24 -326q94 -129 94 -196q0 -34 -29 -63t-83.5 -29t-151.5 68q-72 -36 -158.5 -36 t-167.5 64q-99 -84 -178 -84q-46 0 -72 27t-26 63zM328 565.5q0 -49.5 9 -86.5t25 -69q37 -74 92 -74q58 0 90 72q26 59 26 114.5t-8 91.5t-23 67q-35 73 -89 73q-55 0 -91 -75q-31 -64 -31 -113.5z" />
<glyph unicode="&#xa5;" horiz-adv-x="1086" d="M0 1294q0 38 23 59t65 21t105 -38t128 -91t123 -106t94 -83q34 28 98 84t134 111q177 139 236 139q34 0 57 -25t23 -60t-24 -78t-62 -90t-85 -94t-93 -88q-92 -82 -152 -127v-110q192 0 192 -70q0 -36 -61 -48t-127 -14l-4 -90q26 -4 69 -7q109 -8 109 -61q0 -49 -54 -58 q-30 -6 -62 -8t-62 -4q-2 -44 -2 -98t-13 -101q-31 -111 -139 -111q-142 0 -142 226q0 42 6 82q-103 6 -145.5 21t-42.5 47t16 44t44 16q42 6 130 6l8 96l-81 9q-88 10 -105.5 27.5t-17.5 41.5q0 37 62 48q34 4 73 5t77 3l4 86q-48 40 -117 96t-132 121q-153 158 -153 271z " />
<glyph unicode="&#xa6;" horiz-adv-x="430" d="M102 1232q0 91 9 176.5t15 103.5q9 28 80 28q69 0 82 -26q16 -40 27 -184t11 -160q0 -82 -9 -161t-15 -93t-39 -20t-49 -6q-56 0 -68 26q-21 37 -32.5 167.5t-11.5 148.5zM104 310q0 93 9 187.5t14 113.5q7 27 81 27q70 0 82 -28q16 -39 27 -195.5t11 -172.5 q0 -91 -9 -176.5t-13 -96.5t-15 -16t-25 -9q-21 -6 -44 -6q-62 0 -74 28q-22 38 -33 181t-11 163z" />
<glyph unicode="&#xa7;" horiz-adv-x="830" d="M40 700.5q0 125.5 64 208.5t172 109q-90 44 -146 128t-56 179t47 149t116 83q117 49 299 49h66q79 0 105.5 -16t26.5 -43t-12 -40t-30 -21t-39 -11t-43 -8t-65 -15t-85 -28q-102 -44 -102 -110q0 -44 112 -128q48 -36 103 -75t103 -82t80 -90t32 -102t-22 -111t-58 -104 q-74 -99 -176 -154q127 -67 171 -225q13 -47 13 -93q0 -88 -56 -141t-136 -81q-137 -48 -320 -48h-16q-70 0 -105 35q-13 13 -13 41q0 49 82 78q26 10 77 22t102 30q125 44 125 110q0 48 -31 83t-77 65t-100 62t-100 73q-108 96 -108 221.5zM286 748q0 -50 34 -97t78 -67 q44 28 87 75t43 99t-36 90t-74 50q-132 -60 -132 -150z" />
<glyph unicode="&#xa8;" horiz-adv-x="782" d="M62 1305q0 59 36 101t97 42t100 -41t39 -100t-39 -93t-96 -34t-97 33t-40 92zM448 1315q0 59 37 101t98 42t99 -41t38 -100t-38 -93t-95 -34t-98 33t-41 92z" />
<glyph unicode="&#xa9;" horiz-adv-x="1172" d="M40 892q0 247 163 435q77 89 183 143t226 54t214 -46t162 -124t105 -180t37 -216t-43 -228t-120 -202t-182 -142t-225 -54t-215 46t-163 124q-142 163 -142 390zM178 906q0 -170 106 -295q109 -129 280 -129q181 0 309 148q57 66 89 152t32 172t-27 162t-78 135 q-112 129 -279 129q-184 0 -311 -149q-121 -142 -121 -325zM284 904q0 149 95 269q100 127 247 127q100 0 150 -64t50 -156q0 -44 -27 -76t-79 -32t-69 23t-19 52t-4 52t-34 23t-54 -26t-36 -62q-24 -62 -24 -136q0 -150 92 -150q46 0 89 14t77 14q76 0 76 -52 q0 -54 -88 -98q-72 -36 -138 -36q-144 0 -224 86t-80 228z" />
<glyph unicode="&#xaa;" horiz-adv-x="836" d="M30 727.5q0 88.5 50 150.5t123 105q129 76 303 103l2 30q0 52 -29 84t-76 32t-79 -14t-59 -32q-69 -46 -111 -46t-67 23t-25 70t33 93t83 78q103 66 216 66q93 0 156.5 -34t96.5 -67t58 -87t43 -124t29 -144q17 -114 17 -217t-2 -153t-14 -97q-29 -115 -108 -115 q-64 0 -98 41t-32 103q-115 -102 -264 -102q-94 0 -171 84q-75 81 -75 169.5zM314 760q0 -40 60.5 -40t147.5 58l-4 114h-14q-49 0 -98 -29q-92 -55 -92 -103z" />
<glyph unicode="&#xab;" horiz-adv-x="760" d="M20 323q0 19 21 55t54 77t74 83t81 76q89 76 126.5 76t37.5 -36t-23 -83t-55 -93q-61 -87 -126 -158q188 -205 188 -298q0 -38 -26 -38q-50 0 -203 142q-82 76 -115.5 127t-33.5 70zM326 312q0 20 21 56t54 77t74 83t81 76q89 76 132 76q30 0 30 -37t-23 -84t-54 -93 q-51 -76 -125 -156q186 -203 186 -298q0 -38 -24 -38q-50 0 -203 142q-80 74 -114.5 125t-34.5 71z" />
<glyph unicode="&#xac;" horiz-adv-x="1084" d="M30 518q0 51 40 62.5t107 16.5t140 7t145 2h179t131 -1q136 -3 172 -11t44 -26t12 -38t8 -53t7 -69q7 -84 7 -110t-1 -54t-4 -61q-7 -83 -13 -95q-9 -18 -62 -18q-35 0 -50 18q-14 34 -22 132t-8 122q0 56 8 120q-211 -22 -346.5 -22t-243.5 1t-204 17q-46 8 -46 60z" />
<glyph unicode="&#xad;" horiz-adv-x="920" d="M40 512q0 20 27 37t68 27t93 16t101 9q82 5 132.5 5t115.5 -5t132 -17q169 -30 169 -74q0 -61 -402 -71q-40 -1 -55 -1h-48q-229 0 -308 41q-25 13 -25 33z" />
<glyph unicode="&#xae;" horiz-adv-x="1172" d="M40 902q0 118 43 231t120 202t183 143t226 54t214 -46t162 -124t105 -179t37 -215t-43 -228t-120 -202t-182 -142t-225 -54t-215 46t-163 124q-142 163 -142 390zM178 914q0 -170 106 -295q109 -129 280 -129q182 0 309 149q57 67 89 153t32 171t-27 162t-78 136 q-112 129 -279 129q-184 0 -311 -149q-121 -142 -121 -327zM348 744l16 204l-6 186v25q0 15 4 25q14 25 96 47q136 35 204 35t130 -48t62 -140q0 -60 -37 -105t-83 -73q94 -121 94 -200q0 -34 -24 -52t-52 -18t-45 11t-29 29q-17 26 -31 62q-22 60 -47 96l-72 -24 q-7 -83 -17 -112q-25 -66 -81 -66t-69 38t-13 80zM528 1090q5 -79 2 -128q81 18 118 66q14 18 14 40q0 42 -44.5 42t-89.5 -20z" />
<glyph unicode="&#xaf;" horiz-adv-x="806" d="M62 1390q0 96 362 96q159 0 280 -52q42 -18 42 -44q0 -61 -329 -71q-33 -1 -45 -1q-310 0 -310 72z" />
<glyph unicode="&#xb0;" horiz-adv-x="414" d="M20 1162q0 75 55 128q52 50 131 50q78 0 132 -50q56 -52 56 -128t-56 -128q-54 -50 -132 -50q-122 0 -171 107q-15 33 -15 71zM110 1160q0 -40 30 -68t70 -28t71 28t31 68t-31 68t-71 28t-70 -28t-30 -68z" />
<glyph unicode="&#xb1;" horiz-adv-x="962" d="M40 674q0 61 158 79q62 7 121 6t81 -1v38q0 167 47 263q19 39 50 39t47 -46t23 -104q9 -75 9 -186l152 -6q109 0 169 -31q25 -13 25 -36t-24 -36t-56 -20q-50 -11 -120 -13t-146 -2q-2 -14 -3 -43t-4 -66t-8 -76t-15 -71q-23 -75 -53.5 -77.5t-49.5 41.5t-31 101t-18 111 l-8 72q-346 0 -346 64zM62 112q0 20 27 37t68 27t93 16t101 9q82 5 132.5 5t115.5 -5t132 -17q169 -30 169 -74q0 -61 -402 -71q-40 -1 -55 -1h-48q-229 0 -308 41q-25 13 -25 33z" />
<glyph unicode="&#xb2;" horiz-adv-x="708" d="M62 756q0 37 17 56.5t32 33.5t36 35t68 73t94 112q117 149 117 208q0 22 -13 37t-37 15t-46 -18t-44 -39t-46 -39t-58 -18t-55 22t-21 66t24 89t62 78q79 69 183.5 69t173.5 -49t69 -159q0 -162 -210 -412q-52 -62 -94 -104q155 20 218 20q116 0 116 -74q0 -34 -23 -56 t-78 -34q-147 -32 -327 -32q-97 0 -118.5 17t-30.5 51t-9 52z" />
<glyph unicode="&#xb3;" horiz-adv-x="654" d="M62 1345q0 37 29 72t71 60q89 53 172 53h6q108 0 172 -61t64 -169q0 -143 -120 -184q70 -16 103 -75t33 -125q0 -133 -97 -221q-95 -87 -227 -87q-123 0 -181 50q-23 20 -23 54q0 74 74 74l134 -14q56 0 89 25q59 45 59 97q0 70 -49 116q-15 14 -45 14t-65 -18t-68 -18 q-57 0 -57 58t44 76q150 63 195 111q25 27 25 56t-20 51t-46 22q-38 0 -77 -32t-63 -46t-51 -14t-54 19t-27 56z" />
<glyph unicode="&#xb4;" horiz-adv-x="420" d="M62 1294q0 61 80 157q82 99 142 99q28 0 51 -23t23 -49t-12 -47t-29 -39t-37 -33l-36 -27q-14 -10 -31 -23t-36 -24q-47 -27 -75 -27q-40 0 -40 36z" />
<glyph unicode="&#xb5;" horiz-adv-x="730" d="M42 128v144q0 504 126 504q80 0 80 -282v-44q0 -80 22 -137t49 -85t70 -28t67 50t36 117q18 101 18 175v104q0 124 78 124q56 0 73 -114q7 -46 7 -92v-68q0 -393 -145 -493q-39 -27 -96 -27t-113 31t-72 89q0 -188 -45 -299q-19 -47 -50 -47t-48 27t-28 69t-17 94t-9 100 t-3 88z" />
<glyph unicode="&#xb6;" horiz-adv-x="1188" d="M30 965q0 95 39 172t104 135t149 99t175 66q171 47 349 47h45q99 0 136 -37t58 -114t30 -165q11 -108 11 -308v-276q0 -454 -91 -601q-29 -47 -68 -47t-62 36t-39 92t-26 124t-15 132q-9 115 -9 161v64q0 19 2 37q-24 0 -47 -3t-47 -5q-6 -247 -13 -303.5t-12 -108.5 t-20 -102t-40 -87t-68 -37t-72 40t-47 102t-27 138t-12 147t-3 131v88q-269 39 -351 223q-29 65 -29 160zM346 1000q0 -80 66 -122q5 173 16 258q-82 -56 -82 -136zM700 1216q16 -90 16 -182t4 -182q22 4 41 7t39 7q4 90 4 178t4 178q-52 0 -108 -6z" />
<glyph unicode="&#xb7;" horiz-adv-x="452" d="M62 748q0 50 46 82q37 26 79.5 26t76.5 -10t62 -29t47 -46t19 -70t-43 -73t-82 -30t-73 11t-64 31q-68 45 -68 108z" />
<glyph unicode="&#xb8;" horiz-adv-x="700" d="M62 -389q0 23 24 45t51 22t45 -15t38 -33q53 -48 107.5 -48t90.5 26t36 63t-21 57t-48 36t-56 31t-44 36t-15 63v123q0 68 24 96.5t51 28.5t44 -9q41 -22 41 -159q0 -33 -6 -48q135 -51 193 -147q21 -35 21 -83t-28 -98t-72 -88q-95 -82 -208 -82q-95 0 -143 25 q-94 48 -119 123q-6 12 -6 35z" />
<glyph unicode="&#xb9;" horiz-adv-x="420" d="M82 1390q0 58 30 94t78 36t73 -34t37 -81q16 -63 16 -177l2 -210q0 -384 -94 -384q-103 0 -94 247q2 55 2 81l2 328q-52 42 -52 100z" />
<glyph unicode="&#xba;" horiz-adv-x="800" d="M40 938q0 74 22 172t67 184t115 144t165 58t162 -60t109 -147t61 -184t19 -172t-22 -166t-67 -172t-113 -135t-156 -54t-155 56t-113 138t-70 173t-24 165zM284 980q0 -50 8 -101t25 -102q42 -127 99 -127q60 0 90 119q20 78 20 167q0 77 -22 150.5t-45 110.5t-56 37 t-56 -35t-37 -82q-26 -87 -26 -137z" />
<glyph unicode="&#xbb;" horiz-adv-x="754" d="M40 24q0 34 22 76t53 83t65 77t56 60q-190 242 -190 336q0 16 5 28t26 12t55 -22t73 -57t79 -79t72 -86q72 -94 72 -136q0 -53 -154 -189q-156 -137 -206 -137q-28 0 -28 34zM346 26q0 34 22 76t53 83t64 77l55 60q-190 242 -190 336q0 40 30 40q40 0 105 -57t105 -101 t72 -86q72 -94 72 -128t-47 -88t-108 -109t-121 -96t-86 -41t-26 34z" />
<glyph unicode="&#xbc;" horiz-adv-x="1518" d="M82 1391q0 57 30 92t80 35q124 0 124 -290l2 -210q0 -386 -94 -386q-103 0 -94 248q2 54 2 82l2 326q-52 46 -52 103zM154 26q0 48 19 110t49 135t67 152t75 152t70 135t50 96t50 96t75 138t92 158t96 149q109 155 155 155q32 0 32 -44t-18 -103t-47 -129t-65 -145 t-72 -145q-493 -958 -596 -958q-32 0 -32 48zM846 491v160q0 235 104 235q38 0 58 -73q12 -43 12 -100.5t-10 -142.5l136 8q0 51 13 144.5t21 110.5t28 32t49 15t44 -24t21 -57t5 -68t-1 -78t-6 -79q75 -6 103 -16q63 -22 63 -79t-62 -71q-35 -7 -114 -18q-4 -46 -7 -93 t-6 -81t-5 -71t-11 -73q-23 -90 -75 -90q-82 0 -82 204q0 8 8 192q-64 -4 -102 -4t-59 1t-42 4q-53 8 -67 29q-16 21 -16 83z" />
<glyph unicode="&#xbd;" horiz-adv-x="1358" d="M82 1391q0 57 30 92t80 35q124 0 124 -290l2 -210q0 -386 -94 -386q-103 0 -94 248q2 54 2 82l2 326q-52 46 -52 103zM154 26q0 48 19 110t49 135t67 152t75 152t70 135t50 96t50 96t75 138t92 158t96 149q109 155 155 155q32 0 32 -44t-18 -103t-47 -129t-65 -145 t-72 -145q-493 -958 -596 -958q-32 0 -32 48zM708 106q0 39 22 58q14 16 29 31t35 36t68 73t95 111q117 147 117 207q0 24 -14 39t-38 15t-45 -18t-42 -39t-45 -39t-56 -18q-80 0 -80 80q0 103 84 174q81 68 186.5 68t173.5 -48t68 -158q0 -113 -111 -281 q-82 -124 -193 -235q200 20 241 20t67 -19t26 -54q0 -69 -78 -87q-170 -34 -350 -34q-101 0 -122 18q-20 14 -29 47t-9 53z" />
<glyph unicode="&#xbe;" horiz-adv-x="1746" d="M62 1345q0 37 29 72t71 60q89 53 172 53h6q108 0 172 -61t64 -169q0 -143 -120 -184q70 -16 103 -75t33 -125q0 -133 -97 -221q-95 -87 -227 -87q-123 0 -181 50q-23 20 -23 54q0 74 74 74l134 -14q56 0 89 25q59 45 59 97q0 70 -49 116q-15 14 -45 14t-65 -18t-68 -18 q-57 0 -57 58t44 76q150 63 195 111q25 27 25 56t-20 51t-46 22q-38 0 -77 -32t-63 -46t-51 -14t-54 19t-27 56zM386 26q0 48 19 110t49 135t67 151t74 151t70 136t50 97t49 96t75 138t93 158t97 149t88 111t68 44t27 -44t-18 -103t-46 -129t-64 -145t-71 -145t-67 -129 t-49 -91t-51 -97t-79 -146t-97 -169t-100 -160q-111 -166 -152 -166q-32 0 -32 48zM1076 491v160q0 235 104 235q40 0 60 -73q12 -43 12 -109t-12 -134q34 2 68 3t68 5q4 26 11 96q12 121 22 148q22 58 75 58t68 -81q6 -33 5 -68t-1 -72t-4 -85q75 -6 103 -16q61 -22 61 -79 t-58 -70t-116 -19q-2 -20 -4 -58t-5 -83t-9 -93t-17 -86q-25 -88 -69 -88q-48 0 -71 83q-13 48 -13 123t10 190q-68 -4 -105 -4t-58 1t-42 4q-53 8 -67 29q-16 21 -16 83z" />
<glyph unicode="&#xbf;" horiz-adv-x="996" d="M40 410q0 110 121 217q94 83 219 133q-8 61 -8 139.5t2 122.5t13 83q26 93 109.5 93t107.5 -82q20 -65 20 -156.5t1 -132.5t0 -84q-2 -101 -23.5 -132t-65.5 -54t-89 -50q-113 -68 -113 -141q0 -64 57 -110q50 -40 122.5 -40t116.5 23t75 52t58 52t70 23t82 -34t39 -97 t-45 -115t-111 -85q-122 -61 -274 -61q-174 0 -326 130q-158 135 -158 306zM358 1362q0 42 16 67t42 41q52 32 106 32t95 -23t41 -63t-17 -65t-43 -43q-52 -36 -107 -36t-94 24t-39 66z" />
<glyph unicode="&#xc0;" horiz-adv-x="1140" d="M52 291q0 224 92 583q114 445 320 574q64 40 141 40t133 -34t98 -90t70 -127t47 -144q19 -74 68 -325.5t49 -381.5t-7 -186t-27 -107q-47 -121 -144 -121q-74 0 -111 54t-53 129t-19 153t-5 124q-144 -24 -284 -42q-21 -241 -127 -354q-43 -46 -98 -46t-82 35t-41 83 q-20 69 -20 183zM430 1803.5q0 34.5 22 57.5t52 23q57 0 147 -92q37 -38 62 -80t25 -65q0 -41 -42 -41q-36 0 -75 23t-62 37t-44 28t-40 32q-45 43 -45 77.5zM448 694q120 10 236 30v58q0 191 -47 287q-21 43 -49 43t-46 -27t-32 -68t-25 -91t-19 -96t-12 -83t-6 -53z" />
<glyph unicode="&#xc1;" horiz-adv-x="1140" d="M52 291q0 224 92 583q114 445 320 574q64 40 141 40t133 -34t98 -90t70 -127t47 -144q19 -74 68 -325.5t49 -381.5t-7 -186t-27 -107q-47 -121 -144 -121q-74 0 -111 54t-53 129t-19 153t-5 124q-144 -24 -284 -42q-21 -241 -127 -354q-43 -46 -98 -46t-82 35t-41 83 q-20 69 -20 183zM448 694q120 10 236 30v58q0 191 -47 287q-21 43 -49 43t-46 -27t-32 -68t-25 -91t-19 -96t-12 -83t-6 -53zM492 1642q0 61 80 157q82 99 142 99q28 0 51 -23t23 -49t-12 -47t-29 -39t-37 -33l-36 -27q-14 -10 -31 -23t-36 -24q-47 -27 -75 -27 q-40 0 -40 36z" />
<glyph unicode="&#xc2;" horiz-adv-x="1140" d="M52 291q0 224 92 583q114 445 320 574q64 40 141 40t133 -34t98 -90t70 -127t47 -144q19 -74 68 -325.5t49 -381.5t-7 -186t-27 -107q-47 -121 -144 -121q-74 0 -111 54t-53 129t-19 153t-5 124q-144 -24 -284 -42q-21 -241 -127 -354q-43 -46 -98 -46t-82 35t-41 83 q-20 69 -20 183zM348 1619q0 27 26 73t64 88q92 102 154 102t153 -98q89 -96 89 -160q0 -16 -6 -20t-25 -4t-48 12t-58 30q-59 37 -101 74q-20 -16 -47 -38t-57 -41t-60 -32t-57 -13t-27 27zM448 694q120 10 236 30v58q0 191 -47 287q-21 43 -49 43t-46 -27t-32 -68t-25 -91 t-19 -96t-12 -83t-6 -53z" />
<glyph unicode="&#xc3;" horiz-adv-x="1140" d="M52 291q0 224 92 583q114 445 320 574q64 40 141 40t133 -34t98 -90t70 -127t47 -144q19 -74 68 -325.5t49 -381.5t-7 -186t-27 -107q-47 -121 -144 -121q-74 0 -111 54t-53 129t-19 153t-5 124q-144 -24 -284 -42q-21 -241 -127 -354q-43 -46 -98 -46t-82 35t-41 83 q-20 69 -20 183zM288 1689q0 31 24 63t60 57q79 55 128.5 55t74.5 -14t47 -32q56 -46 91 -46t58 15t46 34t44 34t47 15t47 -24t21 -52t-20 -61t-50 -60q-68 -61 -128 -61q-42 0 -94 25q-98 47 -128 47t-52 -13t-46 -28q-62 -39 -96 -39t-54 27t-20 58zM448 694 q120 10 236 30v58q0 191 -47 287q-21 43 -49 43t-46 -27t-32 -68t-25 -91t-19 -96t-12 -83t-6 -53z" />
<glyph unicode="&#xc4;" horiz-adv-x="1140" d="M52 291q0 224 92 583q114 445 320 574q64 40 141 40t133 -34t98 -90t70 -127t47 -144q19 -74 68 -325.5t49 -381.5t-7 -186t-27 -107q-47 -121 -144 -121q-74 0 -111 54t-53 129t-19 153t-5 124q-144 -24 -284 -42q-21 -241 -127 -354q-43 -46 -98 -46t-82 35t-41 83 q-20 69 -20 183zM288 1755q0 59 36 101t97 42t100 -41t39 -100t-39 -93t-96 -34t-97 33t-40 92zM448 694q120 10 236 30v58q0 191 -47 287q-21 43 -49 43t-46 -27t-32 -68t-25 -91t-19 -96t-12 -83t-6 -53zM674 1765q0 59 37 101t98 42t99 -41t38 -100t-38 -93t-95 -34 t-98 33t-41 92z" />
<glyph unicode="&#xc5;" horiz-adv-x="1140" d="M52 291q0 236 108 636q69 254 193 421q67 90 161 124q-46 22 -75 65t-29 88t15 78t40 57q52 50 131 50q76 0 130 -50q56 -52 56 -135q0 -45 -27 -85t-69 -62q212 -67 289 -479q19 -101 39 -202q56 -283 56 -501q0 -198 -88 -289q-34 -35 -99 -35t-102 54t-53 129t-19 153 t-5 124q-144 -24 -284 -42q-21 -241 -127 -354q-43 -46 -98 -46t-82 35t-41 83q-20 69 -20 183zM448 694q120 10 236 30v58q0 191 -47 287q-21 43 -49 43t-46 -27t-32 -68t-25 -91t-19 -96t-12 -83t-6 -53zM500 1631q0 -41 30 -68t70 -27t70 27t30 68t-30 68t-70 27t-70 -27 t-30 -68z" />
<glyph unicode="&#xc6;" horiz-adv-x="1692" d="M52 300.5q0 101.5 14 222.5t43 254t75 264t109 235q142 234 331 234q164 0 270 -112q20 -20 158 -15q30 1 51 1h71q446 0 446 -162q0 -52 -37 -80t-118 -46t-210 -20t-247 -8q26 -121 32 -186l2 -52q0 -16 2 -30q50 -2 89 -4q78 -4 120.5 -4t88.5 1t93 -9t74 -45t27 -74 q0 -80 -56 -95q-51 -14 -123.5 -21t-114.5 -11t-60 -5t-34 -3t-34 -5q-46 -8 -46 -17l2 -72l-2 -94q0 -4 66 -6t173 4t215 6h36q46 -4 74 -34t28 -77q0 -86 -96 -123q-72 -27 -294 -53q-306 -37 -346 -37t-66 4t-49 14q-50 22 -62.5 64t-15.5 86t-3 91t1 92t1 79l-156 -20 t-154 -20q-33 -244 -96 -320q-28 -28 -61 -54t-78 -26t-72 35t-41 83q-20 69 -20 170.5zM448 716q138 12 276 30q4 14 4 27v33q0 185 -49 288q-21 44 -49 44t-48 -27t-39 -68t-35 -91t-28 -97q-29 -112 -32 -139z" />
<glyph unicode="&#xc7;" horiz-adv-x="964" d="M10 618q0 183 64 385q112 353 345 477q83 44 182 44t165 -49t106 -124q72 -135 72 -333q0 -90 -29 -142t-61 -76t-90 -24t-92 25t-48 63t-15 81t-3 81t-13 63t-49 25t-68 -29t-52 -75t-37 -104t-24 -115q-17 -108 -17 -170.5t3 -120.5t19 -111q38 -127 140 -127 q58 0 125 23q125 43 178 43t83 -37t30 -90t-38 -108t-95 -96q-126 -91 -247 -95l-6 -24q131 -49 194 -149q22 -35 22 -83t-28 -98t-72 -87q-96 -81 -210 -81q-144 0 -220 76q-48 48 -48 88t25 63t52 23t44 -15t37 -33q53 -48 107.5 -48t91.5 25t37 63t-21 58t-49 36t-56 30 t-44 36t-15 63t1 69v10q-190 59 -291 271q-85 179 -85 423z" />
<glyph unicode="&#xc8;" horiz-adv-x="962" d="M52 676q0 72 5 168t19 193q33 228 114 337q41 53 278 110q215 52 314 52q62 0 103 -48q41 -47 41 -89.5t-7 -60.5t-24 -42t-81 -60t-139 -71t-144 -63t-97 -40q-8 -46 -17 -93t-13 -95q170 88 288 88q142 0 142 -140q0 -88 -95 -141q-107 -59 -182 -86t-145 -51 q-12 -48 -12 -74t4 -54l8 -56q318 106 364 106t72 -13t44 -34q40 -47 40 -95t-20 -83t-94 -81t-164 -87q-217 -99 -298 -99q-55 0 -117 33q-109 57 -139 109q-21 37 -30.5 186.5t-12.5 206.5q-5 95 -5 167zM288 1803.5q0 34.5 22 57.5t52 23q57 0 147 -92q37 -38 62 -80 t25 -65q0 -41 -42 -41q-36 0 -75 23t-62 37t-44 28t-40 32q-45 43 -45 77.5z" />
<glyph unicode="&#xc9;" horiz-adv-x="962" d="M52 676q0 72 5 168t19 193q33 228 114 337q41 53 278 110q215 52 314 52q62 0 103 -48q41 -47 41 -89.5t-7 -60.5t-24 -42t-81 -60t-139 -71t-144 -63t-97 -40q-8 -46 -17 -93t-13 -95q170 88 288 88q142 0 142 -140q0 -88 -95 -141q-107 -59 -182 -86t-145 -51 q-12 -48 -12 -74t4 -54l8 -56q318 106 364 106t72 -13t44 -34q40 -47 40 -95t-20 -83t-94 -81t-164 -87q-217 -99 -298 -99q-55 0 -117 33q-109 57 -139 109q-21 37 -30.5 186.5t-12.5 206.5q-5 95 -5 167zM430 1662q0 61 80 157q82 99 142 99q28 0 51 -23t23 -49t-12 -47 t-29 -39t-37 -33l-36 -27q-14 -10 -31 -23t-36 -24q-47 -27 -75 -27q-40 0 -40 36z" />
<glyph unicode="&#xca;" horiz-adv-x="962" d="M52 676q0 72 5 168t19 193q33 228 114 337q41 53 278 110q215 52 314 52q62 0 103 -48q41 -47 41 -89.5t-7 -60.5t-24 -42t-81 -60t-139 -71t-144 -63t-97 -40q-8 -46 -17 -93t-13 -95q170 88 288 88q142 0 142 -140q0 -88 -95 -141q-107 -59 -182 -86t-145 -51 q-12 -48 -12 -74t4 -54l8 -56q318 106 364 106t72 -13t44 -34q40 -47 40 -95t-20 -83t-94 -81t-164 -87q-217 -99 -298 -99q-55 0 -117 33q-109 57 -139 109q-21 37 -30.5 186.5t-12.5 206.5q-5 95 -5 167zM288 1619q0 27 26 73t64 88q92 102 154 102t153 -98 q89 -96 89 -160q0 -16 -6 -20t-25 -4t-48 12t-58 30q-59 37 -101 74q-20 -16 -47 -38t-57 -41t-60 -32t-57 -13t-27 27z" />
<glyph unicode="&#xcb;" horiz-adv-x="962" d="M52 676q0 72 5 168t19 193q33 228 114 337q41 53 278 110q215 52 314 52q62 0 103 -48q41 -47 41 -89.5t-7 -60.5t-24 -42t-81 -60t-139 -71t-144 -63t-97 -40q-8 -46 -17 -93t-13 -95q170 88 288 88q142 0 142 -140q0 -88 -95 -141q-107 -59 -182 -86t-145 -51 q-12 -48 -12 -74t4 -54l8 -56q318 106 364 106t72 -13t44 -34q40 -47 40 -95t-20 -83t-94 -81t-164 -87q-217 -99 -298 -99q-55 0 -117 33q-109 57 -139 109q-21 37 -30.5 186.5t-12.5 206.5q-5 95 -5 167zM206 1755q0 59 36 101t97 42t100 -41t39 -100t-39 -93t-96 -34 t-97 33t-40 92zM592 1765q0 59 37 101t98 42t99 -41t38 -100t-38 -93t-95 -34t-98 33t-41 92z" />
<glyph unicode="&#xcc;" horiz-adv-x="720" d="M-30 58q0 76 62 134q51 48 134 66q37 287 41.5 420.5t8.5 244.5t8 223q-28 -4 -52 -4t-56 6t-60 21q-66 35 -66 98t57 107t136 68q138 42 293 42q161 0 243 -60q33 -24 33 -64t-17 -70t-45 -51q-55 -41 -128 -55q-8 -473 -58 -870h12q115 0 159 -73q15 -25 15 -66 t-29 -75t-76 -58t-105 -40t-116 -25q-110 -17 -194 -17q-200 0 -200 98zM226 1803.5q0 34.5 22 57.5t52 23q57 0 147 -92q37 -38 62 -80t25 -65q0 -41 -42 -41q-36 0 -75 23t-62 37t-44 28t-40 32q-45 43 -45 77.5z" />
<glyph unicode="&#xcd;" horiz-adv-x="720" d="M-30 58q0 76 62 134q51 48 134 66q37 287 41.5 420.5t8.5 244.5t8 223q-28 -4 -52 -4t-56 6t-60 21q-66 35 -66 98t57 107t136 68q138 42 293 42q161 0 243 -60q33 -24 33 -64t-17 -70t-45 -51q-55 -41 -128 -55q-8 -473 -58 -870h12q115 0 159 -73q15 -25 15 -66 t-29 -75t-76 -58t-105 -40t-116 -25q-110 -17 -194 -17q-200 0 -200 98zM370 1662q0 61 80 157q82 99 142 99q28 0 51 -23t23 -49t-12 -47t-29 -39t-37 -33l-36 -27q-14 -10 -31 -23t-36 -24q-47 -27 -75 -27q-40 0 -40 36z" />
<glyph unicode="&#xce;" horiz-adv-x="720" d="M-30 58q0 76 62 134q51 48 134 66q37 287 41.5 420.5t8.5 244.5t8 223q-28 -4 -52 -4t-56 6t-60 21q-66 35 -66 98t57 107t136 68q138 42 293 42q161 0 243 -60q33 -24 33 -64t-17 -70t-45 -51q-55 -41 -128 -55q-8 -473 -58 -870h12q115 0 159 -73q15 -25 15 -66 t-29 -75t-76 -58t-105 -40t-116 -25q-110 -17 -194 -17q-200 0 -200 98zM144 1619q0 27 26 73t64 88q92 102 154 102t153 -98q89 -96 89 -160q0 -16 -6 -20t-25 -4t-48 12t-58 30q-59 37 -101 74q-20 -16 -47 -38t-57 -41t-60 -32t-57 -13t-27 27z" />
<glyph unicode="&#xcf;" horiz-adv-x="720" d="M-30 58q0 76 62 134q51 48 134 66q37 287 41.5 420.5t8.5 244.5t8 223q-28 -4 -52 -4t-56 6t-60 21q-66 35 -66 98t57 107t136 68q138 42 293 42q161 0 243 -60q33 -24 33 -64t-17 -70t-45 -51q-55 -41 -128 -55q-8 -473 -58 -870h12q115 0 159 -73q15 -25 15 -66 t-29 -75t-76 -58t-105 -40t-116 -25q-110 -17 -194 -17q-200 0 -200 98zM62 1735q0 59 36 101t97 42t100 -41t39 -100t-39 -93t-96 -34t-97 33t-40 92zM448 1745q0 59 37 101t98 42t99 -41t38 -100t-38 -93t-95 -34t-98 33t-41 92z" />
<glyph unicode="&#xd0;" horiz-adv-x="1146" d="M-52 776q0 57 152 82q4 54 9 126t13 141q19 167 38 195q49 83 198 134q128 44 250 44t220 -49t162 -132q126 -163 126 -417q0 -176 -72 -339t-193 -289t-281 -201t-336 -75h-4q-140 0 -140 526v94q0 48 4 94q-146 15 -146 66zM424 583q0 -73 7 -122t17 -49q60 0 120 47 t107 115t77 142t30 122t-16 94t-46 84q-66 84 -158 84q-44 0 -88 -20q-31 -12 -42 -218q139 -15 191 -54q19 -14 19 -31t-19 -28t-50 -19q-69 -18 -147 -22q-2 -24 -2 -41v-84z" />
<glyph unicode="&#xd1;" horiz-adv-x="1296" d="M62 509q0 71 4 160t17 197t34 222t55 207q77 211 194 211q105 0 198 -162q38 -66 64 -138t52 -143q66 -180 94 -269q46 -146 68 -200l-2 57v67q-4 132 -4 262q0 512 170 512q91 0 146 -135q72 -177 72 -499q0 -248 -50 -501q-43 -218 -130 -318q-46 -53 -108 -53t-112 35 t-90 86q-65 83 -113.5 200t-90.5 216t-80 201v-56q0 -242 -9 -308t-14 -111t-15 -89q-24 -107 -80 -138q-18 -10 -33 -12t-33 -6h-6q-147 0 -187 341q-11 93 -11 164zM370 1711q0 31 24 63t60 57q79 55 128.5 55t74.5 -14t47 -32q56 -46 91 -46t58 15t46 34t44 34t47 15 t47 -24t21 -52t-20 -61t-50 -60q-68 -61 -128 -61q-42 0 -94 25q-98 47 -128 47t-52 -13t-46 -28q-62 -39 -96 -39t-54 27t-20 58z" />
<glyph unicode="&#xd2;" d="M40 684q0 316 126 544q64 116 162 190t232 74t223 -71t142 -184q99 -211 99 -533q0 -330 -125 -540q-137 -230 -378 -230q-125 0 -215 61t-149 164q-117 204 -117 525zM370 1783.5q0 34.5 22 57.5t52 23q57 0 147 -92q37 -38 62 -80t25 -65q0 -41 -42 -41q-36 0 -75 23 t-62 37t-44 28t-40 32q-45 43 -45 77.5zM398 743q0 -105 9 -175t27 -126q40 -124 110 -124q75 0 111 150q25 103 25 197.5t-7 154.5t-23 111t-42 85t-65 34t-66 -30t-45 -79q-34 -93 -34 -198z" />
<glyph unicode="&#xd3;" d="M40 684q0 316 126 544q64 116 162 190t232 74t223 -71t142 -184q99 -211 99 -533q0 -330 -125 -540q-137 -230 -378 -230q-125 0 -215 61t-149 164q-117 204 -117 525zM398 743q0 -105 9 -175t27 -126q40 -124 110 -124q75 0 111 150q25 103 25 197.5t-7 154.5t-23 111 t-42 85t-65 34t-66 -30t-45 -79q-34 -93 -34 -198zM472 1642q0 61 80 157q82 99 142 99q28 0 51 -23t23 -49t-12 -47t-29 -39t-37 -33l-36 -27q-14 -10 -31 -23t-36 -24q-47 -27 -75 -27q-40 0 -40 36z" />
<glyph unicode="&#xd4;" d="M40 684q0 316 126 544q64 116 162 190t232 74t223 -71t142 -184q99 -211 99 -533q0 -330 -125 -540q-137 -230 -378 -230q-125 0 -215 61t-149 164q-117 204 -117 525zM328 1619q0 27 26 73t64 88q92 102 154 102t153 -98q89 -96 89 -160q0 -16 -6 -20t-25 -4t-48 12 t-58 30q-59 37 -101 74q-20 -16 -47 -38t-57 -41t-60 -32t-57 -13t-27 27zM398 743q0 -105 9 -175t27 -126q40 -124 110 -124q75 0 111 150q25 103 25 197.5t-7 154.5t-23 111t-42 85t-65 34t-66 -30t-45 -79q-34 -93 -34 -198z" />
<glyph unicode="&#xd5;" d="M40 684q0 316 126 544q64 116 162 190t232 74t223 -71t142 -184q99 -211 99 -533q0 -330 -125 -540q-137 -230 -378 -230q-125 0 -215 61t-149 164q-117 204 -117 525zM206 1689q0 31 24 63t60 57q79 55 128.5 55t74.5 -14t47 -32q56 -46 91 -46t58 15t46 34t44 34t47 15 t47 -24t21 -52t-20 -61t-50 -60q-68 -61 -128 -61q-42 0 -94 25q-98 47 -128 47t-52 -13t-46 -28q-62 -39 -96 -39t-54 27t-20 58zM398 743q0 -105 9 -175t27 -126q40 -124 110 -124q75 0 111 150q25 103 25 197.5t-7 154.5t-23 111t-42 85t-65 34t-66 -30t-45 -79 q-34 -93 -34 -198z" />
<glyph unicode="&#xd6;" d="M40 684q0 316 126 544q64 116 162 190t232 74t223 -71t142 -184q99 -211 99 -533q0 -330 -125 -540q-137 -230 -378 -230q-125 0 -215 61t-149 164q-117 204 -117 525zM246 1755q0 59 36 101t97 42t100 -41t39 -100t-39 -93t-96 -34t-97 33t-40 92zM398 743 q0 -105 9 -175t27 -126q40 -124 110 -124q75 0 111 150q25 103 25 197.5t-7 154.5t-23 111t-42 85t-65 34t-66 -30t-45 -79q-34 -93 -34 -198zM632 1765q0 59 37 101t98 42t99 -41t38 -100t-38 -93t-95 -34t-98 33t-41 92z" />
<glyph unicode="&#xd7;" horiz-adv-x="836" d="M62 195q0 33 30 82t70 97q72 87 144 152q-108 135 -155 223.5t-47 116.5q0 44 38 44q82 0 284 -252q229 252 308 252q40 0 40 -38q0 -62 -184 -287q-40 -49 -58 -71q20 -22 56 -60t69 -81q83 -108 83 -157.5t-37 -49.5t-79 26t-82 63q-42 39 -132 137 q-120 -140 -231 -204q-45 -26 -81 -26t-36 33z" />
<glyph unicode="&#xd8;" d="M40 684q0 316 126 544q64 116 162 190t223 74t219 -60q116 170 176 170q50 0 50 -90t-70 -278q98 -215 98 -530q0 -330 -125 -540q-137 -230 -381 -230q-110 0 -196 52q-52 -78 -95 -127t-67 -49t-35 10t-17 25q-10 25 -10 61q0 84 58 254q-116 208 -116 524zM398 743 q0 -105 9 -175t27 -126q40 -124 110 -124q75 0 111 150q25 103 25 197.5t-7 154.5t-23 111t-42 85t-65 34t-66 -30t-45 -79q-34 -93 -34 -198z" />
<glyph unicode="&#xd9;" horiz-adv-x="1204" d="M52 722v26q0 12 2 38t7 98t17 154t31 168t50 154q71 156 179 156q79 0 123 -91q35 -72 35 -143.5t-11 -126.5t-24 -125q-33 -178 -33 -278t5 -166t25 -127q48 -147 158 -147q62 0 99 42t55 100q28 90 28 227q0 239 -80 523q-24 82 -24 137t33 97t88 42t98 -39t77 -102 t59 -141t43 -155q32 -139 38 -261q2 -20 2 -39v-71q0 -273 -91 -463q-118 -247 -397 -247q-150 0 -261 70t-185 179t-110 244t-36 267zM452 1803.5q0 34.5 22 57.5t52 23q57 0 147 -92q37 -38 62 -80t25 -65q0 -41 -42 -41q-36 0 -75 23t-62 37t-44 28t-40 32 q-45 43 -45 77.5z" />
<glyph unicode="&#xda;" horiz-adv-x="1204" d="M52 722v26q0 12 2 38t7 98t17 154t31 168t50 154q71 156 179 156q79 0 123 -91q35 -72 35 -143.5t-11 -126.5t-24 -125q-33 -178 -33 -278t5 -166t25 -127q48 -147 158 -147q62 0 99 42t55 100q28 90 28 227q0 239 -80 523q-24 82 -24 137t33 97t88 42t98 -39t77 -102 t59 -141t43 -155q32 -139 38 -261q2 -20 2 -39v-71q0 -273 -91 -463q-118 -247 -397 -247q-150 0 -261 70t-185 179t-110 244t-36 267zM534 1642q0 61 80 157q82 99 142 99q28 0 51 -23t23 -49t-12 -47t-29 -39t-37 -33l-36 -27q-14 -10 -31 -23t-36 -24q-47 -27 -75 -27 q-40 0 -40 36z" />
<glyph unicode="&#xdb;" horiz-adv-x="1204" d="M52 722v26q0 12 2 38t7 98t17 154t31 168t50 154q71 156 179 156q79 0 123 -91q35 -72 35 -143.5t-11 -126.5t-24 -125q-33 -178 -33 -278t5 -166t25 -127q48 -147 158 -147q62 0 99 42t55 100q28 90 28 227q0 239 -80 523q-24 82 -24 137t33 97t88 42t98 -39t77 -102 t59 -141t43 -155q32 -139 38 -261q2 -20 2 -39v-71q0 -273 -91 -463q-118 -247 -397 -247q-150 0 -261 70t-185 179t-110 244t-36 267zM370 1641q0 27 26 73t64 88q92 102 154 102t153 -98q89 -96 89 -160q0 -16 -6 -20t-25 -4t-48 12t-58 30q-59 37 -101 74 q-20 -16 -47 -38t-57 -41t-60 -32t-57 -13t-27 27z" />
<glyph unicode="&#xdc;" horiz-adv-x="1204" d="M52 722v26q0 12 2 38t7 98t17 154t31 168t50 154q71 156 179 156q79 0 123 -91q35 -72 35 -143.5t-11 -126.5t-24 -125q-33 -178 -33 -278t5 -166t25 -127q48 -147 158 -147q62 0 99 42t55 100q28 90 28 227q0 239 -80 523q-24 82 -24 137t33 97t88 42t98 -39t77 -102 t59 -141t43 -155q32 -139 38 -261q2 -20 2 -39v-71q0 -273 -91 -463q-118 -247 -397 -247q-150 0 -261 70t-185 179t-110 244t-36 267zM266 1755q0 59 36 101t97 42t100 -41t39 -100t-39 -93t-96 -34t-97 33t-40 92zM652 1765q0 59 37 101t98 42t99 -41t38 -100t-38 -93 t-95 -34t-98 33t-41 92z" />
<glyph unicode="&#xdd;" horiz-adv-x="890" d="M20 1278q0 56 8 99t27 80q45 87 127 87q92 0 163 -138t117 -412q10 -60 18 -94q51 190 110.5 323t98.5 197q89 146 173 146q54 0 81 -74q19 -52 19 -128t-23 -182t-59 -214q-62 -187 -119 -310.5t-86 -190.5t-65 -143t-77 -153t-85 -138q-100 -139 -182 -139 q-64 0 -91 47t-27 105q0 167 196 468q-40 10 -78 36t-56 62q-122 267 -172 519q-18 91 -18 147zM452 1662q0 61 80 157q82 99 142 99q28 0 51 -23t23 -49t-12 -47t-29 -39t-37 -33l-36 -27q-14 -10 -31 -23t-36 -24q-47 -27 -75 -27q-40 0 -40 36z" />
<glyph unicode="&#xde;" horiz-adv-x="1002" d="M62 511v361q0 454 91 601q29 47 76 47t80 -42t51 -99q34 -108 34 -213q16 0 35 3q70 11 158.5 11t167.5 -22t136 -68t89 -120t32 -188t-55 -209t-142 -161q-172 -130 -413 -148q-27 -192 -99 -287q-31 -41 -75 -41q-138 0 -162 442q-4 74 -4 133zM402 524h6q108 0 192 56 q92 62 96 174q2 64 -38 110t-116 46q-59 0 -134 -28q-4 -90 -3 -179t-3 -179z" />
<glyph unicode="&#xdf;" horiz-adv-x="1214" d="M-72 746q0 38 29 66t71 46q64 28 164 40v36q0 415 213 575q81 61 185 61t173 -30t120 -81q109 -109 109 -271q0 -57 -20 -131q-38 -142 -38 -197q0 -67 67 -132q29 -28 63 -55t63 -61q67 -79 67 -171.5t-43 -173.5t-111 -144t-152 -101t-166 -38q-192 0 -192 128 q0 95 78 136q34 18 73 28t73 25q78 34 78 107q0 42 -33 87t-73 96t-73 110t-33 118t14 104t32 84q46 100 46 127.5t-7 51.5t-21 45q-31 47 -79.5 47t-75.5 -45t-41 -106q-22 -96 -22 -182q0 -141 8 -253q4 -140 9 -285t-5 -287q-6 -58 -47 -100t-88 -42t-71 13t-39 35 q-29 42 -36 135q-20 263 -17 457q-14 -2 -26 -2h-28q-121 0 -177 67q-21 25 -21 63z" />
<glyph unicode="&#xe0;" horiz-adv-x="970" d="M10 288.5q0 103.5 59 175.5t145 123q161 95 356 121l2 36q0 62 -34 100t-90 38t-92 -17t-68 -38t-64 -38t-74 -17t-73 28t-31 83t39 109t98 91q126 79 255 79q178 0 297 -119q113 -113 155 -418q20 -145 20 -343q0 -342 -148 -342q-74 0 -114 48t-38 120 q-137 -120 -310 -120q-111 0 -202 100q-88 97 -88 200.5zM328 1495.5q0 34.5 22 57.5t52 23q57 0 147 -92q37 -38 62 -80t25 -65q0 -41 -42 -41q-36 0 -75 23t-62 37t-44 28t-40 32q-45 43 -45 77.5zM342 326q0 -48 65.5 -48t182.5 68l-6 136l-16 2q-63 0 -120 -36 q-106 -68 -106 -122z" />
<glyph unicode="&#xe1;" horiz-adv-x="970" d="M10 288.5q0 103.5 59 175.5t145 123q161 95 356 121l2 36q0 62 -34 100t-90 38t-92 -17t-68 -38t-64 -38t-74 -17t-73 28t-31 83t39 109t98 91q126 79 255 79q178 0 297 -119q113 -113 155 -418q20 -145 20 -343q0 -342 -148 -342q-74 0 -114 48t-38 120 q-137 -120 -310 -120q-111 0 -202 100q-88 97 -88 200.5zM342 326q0 -48 65.5 -48t182.5 68l-6 136l-16 2q-63 0 -120 -36q-106 -68 -106 -122zM390 1334q0 61 80 157q82 99 142 99q28 0 51 -23t23 -49t-12 -47t-29 -39t-37 -33l-36 -27q-14 -10 -31 -23t-36 -24 q-47 -27 -75 -27q-40 0 -40 36z" />
<glyph unicode="&#xe2;" horiz-adv-x="970" d="M10 288.5q0 103.5 59 175.5t145 123q161 95 356 121l2 36q0 62 -34 100t-90 38t-92 -17t-68 -38t-64 -38t-74 -17t-73 28t-31 83t39 109t98 91q126 79 255 79q178 0 297 -119q113 -113 155 -418q20 -145 20 -343q0 -342 -148 -342q-74 0 -114 48t-38 120 q-137 -120 -310 -120q-111 0 -202 100q-88 97 -88 200.5zM226 1313q0 27 26 73t64 88q92 102 154 102t153 -98q89 -96 89 -160q0 -16 -6 -20t-25 -4t-48 12t-58 30q-59 37 -101 74q-20 -16 -47 -38t-57 -41t-60 -32t-57 -13t-27 27zM342 326q0 -48 65.5 -48t182.5 68l-6 136 l-16 2q-63 0 -120 -36q-106 -68 -106 -122z" />
<glyph unicode="&#xe3;" horiz-adv-x="970" d="M10 288.5q0 103.5 59 175.5t145 123q161 95 356 121l2 36q0 62 -34 100t-90 38t-92 -17t-68 -38t-64 -38t-74 -17t-73 28t-31 83t39 109t98 91q126 79 255 79q178 0 297 -119q113 -113 155 -418q20 -145 20 -343q0 -342 -148 -342q-74 0 -114 48t-38 120 q-137 -120 -310 -120q-111 0 -202 100q-88 97 -88 200.5zM144 1383q0 31 24 63t60 57q79 55 128.5 55t74.5 -14t47 -32q56 -46 91 -46t58 15t46 34t44 34t47 15t47 -24t21 -52t-20 -61t-50 -60q-68 -61 -128 -61q-42 0 -94 25q-98 47 -128 47t-52 -13t-46 -28 q-62 -39 -96 -39t-54 27t-20 58zM342 326q0 -48 65.5 -48t182.5 68l-6 136l-16 2q-63 0 -120 -36q-106 -68 -106 -122z" />
<glyph unicode="&#xe4;" horiz-adv-x="970" d="M10 288.5q0 103.5 59 175.5t145 123q161 95 356 121l2 36q0 62 -34 100t-90 38t-92 -17t-68 -38t-64 -38t-74 -17t-73 28t-31 83t39 109t98 91q126 79 255 79q178 0 297 -119q113 -113 155 -418q20 -145 20 -343q0 -342 -148 -342q-74 0 -114 48t-38 120 q-137 -120 -310 -120q-111 0 -202 100q-88 97 -88 200.5zM164 1427q0 59 36 101t97 42t100 -41t39 -100t-39 -93t-96 -34t-97 33t-40 92zM342 326q0 -48 65.5 -48t182.5 68l-6 136l-16 2q-63 0 -120 -36q-106 -68 -106 -122zM550 1437q0 59 37 101t98 42t99 -41t38 -100 t-38 -93t-95 -34t-98 33t-41 92z" />
<glyph unicode="&#xe5;" horiz-adv-x="970" d="M10 288.5q0 103.5 59 175.5t145 123q161 95 356 121l2 36q0 62 -34 100t-90 38t-92 -17t-68 -38t-64 -38t-74 -17t-73 28t-31 78t30 98t77 85q92 72 219 95q-38 22 -62 62t-24 82t15 75t41 57q54 50 132 50q76 0 130 -50q56 -52 56 -116q0 -120 -104 -170 q174 -50 242 -194q112 -230 112 -670q0 -342 -148 -342q-74 0 -114 48t-38 120q-137 -120 -310 -120q-111 0 -202 100q-88 97 -88 200.5zM342 326q0 -48 65.5 -48t182.5 68l-6 136l-16 2q-63 0 -120 -36q-106 -68 -106 -122zM376 1303q0 -41 31 -68t71 -27t70 27t30 68 t-30 68t-70 27t-71 -27t-31 -68z" />
<glyph unicode="&#xe6;" horiz-adv-x="1676" d="M10 341.5q0 104.5 59 176.5t145 123q161 95 356 121l2 34q0 62 -34 101t-90 39t-92 -17t-68 -37t-64 -37t-74 -17t-73 27t-31 84t41 111t101 91q122 75 262 75q191 0 294 -114q55 -61 83 -204q11 -56 29 -110q104 252 279 336q67 32 141 32t131 -20t98 -58 q89 -82 89 -216q0 -186 -146 -321q-142 -131 -330 -139q8 -58 47 -85t86 -27t85 20t74 45t71 45t73 20t69 -26t31 -63q0 -105 -117 -225q-81 -83 -196 -123q-55 -19 -113 -19q-106 0 -190 55t-140 141q-32 -97 -90 -147q-22 -19 -46 -19q-74 0 -114 48t-38 120 q-139 -122 -310 -122q-111 0 -202 100q-88 97 -88 201.5zM342 378q0 -46 68.5 -46t179.5 70l-6 132q-6 2 -24 2t-57 -13t-75 -36q-86 -55 -86 -109zM1088 642q0 -34 10 -34q92 0 169 54q87 61 87 146q0 36 -19 64t-64 28t-80 -26t-58 -65t-34 -86t-11 -81z" />
<glyph unicode="&#xe7;" horiz-adv-x="818" d="M20 510q0 233 110 424q79 138 205 196q65 30 141 30t130 -32t89 -84q71 -105 71 -244q0 -55 -12 -85.5t-48 -59.5t-82 -29q-68 0 -94 68q-6 18 -5 47t-2 56q-7 67 -57 67q-66 0 -124 -146q-52 -130 -52 -218q0 -149 59 -226q23 -30 59 -30t66 22t58 49t56 49t66 22 t65 -32t27 -79t-24 -94t-62 -85q-81 -81 -186 -106v-12q0 -39 -8 -52q133 -50 194 -147q22 -35 22 -83t-28 -98t-72 -88q-95 -82 -210 -82q-95 0 -143 25q-94 48 -119 123q-6 12 -6 35t25 45t52 22t44 -15t37 -33q53 -48 108.5 -48t91.5 26t36 63t-21 57t-49 36t-56 31 t-43 36t-15 63v96q-150 33 -228 202q-66 144 -66 318z" />
<glyph unicode="&#xe8;" horiz-adv-x="918" d="M30 556q0 100 28 214t85 210t144 160t207 64q142 0 238 -88q102 -93 102 -230q0 -185 -146 -318q-143 -130 -328 -138q15 -110 140 -110q58 0 152 65q36 25 71 45t73 20t70 -26t32 -81t-43 -120t-108 -116q-144 -113 -262.5 -113t-201.5 53t-139 135q-114 167 -114 374z M308 1517.5q0 34.5 22 57.5t52 23q57 0 147 -92q37 -38 62 -80t25 -65q0 -41 -42 -41q-36 0 -75 23t-62 37t-44 28t-40 32q-45 43 -45 77.5zM348 698q226 48 226 143q0 31 -14 59t-51 28t-67 -23t-50 -58q-39 -69 -44 -149z" />
<glyph unicode="&#xe9;" horiz-adv-x="918" d="M30 556q0 100 28 214t85 210t144 160t207 64q142 0 238 -88q102 -93 102 -230q0 -185 -146 -318q-143 -130 -328 -138q15 -110 140 -110q58 0 152 65q36 25 71 45t73 20t70 -26t32 -81t-43 -120t-108 -116q-144 -113 -262.5 -113t-201.5 53t-139 135q-114 167 -114 374z M348 698q226 48 226 143q0 31 -14 59t-51 28t-67 -23t-50 -58q-39 -69 -44 -149zM390 1376q0 61 80 157q82 99 142 99q28 0 51 -23t23 -49t-12 -47t-29 -39t-37 -33l-36 -27q-14 -10 -31 -23t-36 -24q-47 -27 -75 -27q-40 0 -40 36z" />
<glyph unicode="&#xea;" horiz-adv-x="918" d="M30 556q0 100 28 214t85 210t144 160t207 64q142 0 238 -88q102 -93 102 -230q0 -185 -146 -318q-143 -130 -328 -138q15 -110 140 -110q58 0 152 65q36 25 71 45t73 20t70 -26t32 -81t-43 -120t-108 -116q-144 -113 -262.5 -113t-201.5 53t-139 135q-114 167 -114 374z M266 1333q0 27 26 73t64 88q92 102 154 102t153 -98q89 -96 89 -160q0 -16 -6 -20t-25 -4t-48 12t-58 30q-59 37 -101 74q-20 -16 -47 -38t-57 -41t-60 -32t-57 -13t-27 27zM348 698q226 48 226 143q0 31 -14 59t-51 28t-67 -23t-50 -58q-39 -69 -44 -149z" />
<glyph unicode="&#xeb;" horiz-adv-x="918" d="M30 556q0 100 28 214t85 210t144 160t207 64q142 0 238 -88q102 -93 102 -230q0 -185 -146 -318q-143 -130 -328 -138q15 -110 140 -110q58 0 152 65q36 25 71 45t73 20t70 -26t32 -81t-43 -120t-108 -116q-144 -113 -262.5 -113t-201.5 53t-139 135q-114 167 -114 374z M164 1449q0 59 36 101t97 42t100 -41t39 -100t-39 -93t-96 -34t-97 33t-40 92zM348 698q226 48 226 143q0 31 -14 59t-51 28t-67 -23t-50 -58q-39 -69 -44 -149zM550 1459q0 59 37 101t98 42t99 -41t38 -100t-38 -93t-95 -34t-98 33t-41 92z" />
<glyph unicode="&#xec;" horiz-adv-x="488" d="M62 1495.5q0 34.5 22 57.5t52 23q57 0 147 -92q37 -38 62 -80t25 -65q0 -41 -42 -41q-36 0 -75 23t-62 37t-44 28t-40 32q-45 43 -45 77.5zM72 456v165q0 375 106 487q34 36 86 36q142 0 142 -428v-59l-4 -150q0 -502 -182 -509q-68 -4 -107 113q-41 123 -41 345z" />
<glyph unicode="&#xed;" horiz-adv-x="488" d="M72 456v165q0 375 106 487q34 36 86 36q142 0 142 -428v-59l-4 -150q0 -502 -182 -509q-68 -4 -107 113q-41 123 -41 345zM184 1334q0 61 80 157q82 99 142 99q28 0 51 -23t23 -49t-12 -47t-29 -39t-37 -33l-36 -27q-14 -10 -31 -23t-36 -24q-47 -27 -75 -27 q-40 0 -40 36z" />
<glyph unicode="&#xee;" horiz-adv-x="488" d="M2 1313q0 27 26 73t64 88q92 102 154 102t153 -98q89 -96 89 -160q0 -16 -6 -20t-25 -4t-48 12t-58 30q-59 37 -101 74q-20 -16 -47 -38t-57 -41t-60 -32t-57 -13t-27 27zM72 456v165q0 375 106 487q34 36 86 36q142 0 142 -428v-59l-4 -150q0 -502 -182 -509 q-68 -4 -107 113q-41 123 -41 345z" />
<glyph unicode="&#xef;" horiz-adv-x="488" d="M-58 1427q0 59 36 101t97 42t100 -41t39 -100t-39 -93t-96 -34t-97 33t-40 92zM72 456v165q0 375 106 487q34 36 86 36q142 0 142 -428v-59l-4 -150q0 -502 -182 -509q-68 -4 -107 113q-41 123 -41 345zM328 1437q0 59 37 101t98 42t99 -41t38 -100t-38 -93t-95 -34 t-98 33t-41 92z" />
<glyph unicode="&#xf0;" horiz-adv-x="1014" d="M30 528q0 60 6 124t21 130t39 129t61 113q81 110 205 110q72 0 138 -42t100 -104q6 110 12 228q-159 0 -226 36q-26 14 -26 37t25 40t64 28q71 20 173 25q12 220 142 220q158 0 158 -240q54 -12 93 -29t39 -42t-38 -38t-92 -23v-246q0 -291 -58 -546q-64 -281 -240 -400 q-92 -62 -226 -62q-90 0 -159 62t-116 150t-71 184t-24 156zM310 582q0 -160 50 -250q20 -36 61 -36t77 21t59 54q45 65 45 161.5t-45 168.5q-53 85 -141 85q-106 0 -106 -204z" />
<glyph unicode="&#xf1;" horiz-adv-x="956" d="M52 812q0 156 15 219t47 105t94 42q48 0 89 -62q27 -41 45 -108q103 144 280 144q180 0 243 -171q39 -105 39 -309q0 -183 -60 -415q-81 -313 -216 -313q-58 0 -84 102q-16 64 -16 134t7 130t16 120q23 153 23 240q0 162 -76 162q-32 0 -81 -95q-45 -88 -45 -129l2 -180 v-116q-5 -89 -14.5 -136.5t-21.5 -80.5t-31 -58q-43 -57 -95 -57t-78 26t-42 67t-23 92t-10 100t-2 90t1 65v94zM164 1383q0 31 24 63t60 57q79 55 128.5 55t74.5 -14t47 -32q56 -46 91 -46t58 15t46 34t44 34t47 15t47 -24t21 -52t-20 -61t-50 -60q-68 -61 -128 -61 q-42 0 -94 25q-98 47 -128 47t-52 -13t-46 -28q-62 -39 -96 -39t-54 27t-20 58z" />
<glyph unicode="&#xf2;" horiz-adv-x="916" d="M30 524q0 242 106 425q54 93 138 152t198 59t193 -61t127 -152q138 -261 49 -617q-58 -230 -211 -334q-80 -54 -186 -54t-182 54t-128 138q-104 168 -104 390zM308 1495.5q0 34.5 22 57.5t52 23q57 0 147 -92q37 -38 62 -80t25 -65q0 -41 -42 -41q-36 0 -75 23t-62 37 t-44 28t-40 32q-45 43 -45 77.5zM338 571.5q0 -69.5 9 -125.5t25 -103q37 -109 92 -109q60 0 92 106q26 85 26 166.5t-8 134.5t-23 99q-35 106 -91 106q-55 0 -91 -110q-31 -95 -31 -164.5z" />
<glyph unicode="&#xf3;" horiz-adv-x="916" d="M30 524q0 242 106 425q54 93 138 152t198 59t193 -61t127 -152q138 -261 49 -617q-58 -230 -211 -334q-80 -54 -186 -54t-182 54t-128 138q-104 168 -104 390zM338 571.5q0 -69.5 9 -125.5t25 -103q37 -109 92 -109q60 0 92 106q26 85 26 166.5t-8 134.5t-23 99 q-35 106 -91 106q-55 0 -91 -110q-31 -95 -31 -164.5zM390 1314q0 61 80 157q82 99 142 99q28 0 51 -23t23 -49t-12 -47t-29 -39t-37 -33l-36 -27q-14 -10 -31 -23t-36 -24q-47 -27 -75 -27q-40 0 -40 36z" />
<glyph unicode="&#xf4;" horiz-adv-x="916" d="M30 524q0 242 106 425q54 93 138 152t198 59t193 -61t127 -152q138 -261 49 -617q-58 -230 -211 -334q-80 -54 -186 -54t-182 54t-128 138q-104 168 -104 390zM226 1313q0 27 26 73t64 88q92 102 154 102t153 -98q89 -96 89 -160q0 -16 -6 -20t-25 -4t-48 12t-58 30 q-59 37 -101 74q-20 -16 -47 -38t-57 -41t-60 -32t-57 -13t-27 27zM338 571.5q0 -69.5 9 -125.5t25 -103q37 -109 92 -109q60 0 92 106q26 85 26 166.5t-8 134.5t-23 99q-35 106 -91 106q-55 0 -91 -110q-31 -95 -31 -164.5z" />
<glyph unicode="&#xf5;" horiz-adv-x="916" d="M30 524q0 242 106 425q54 93 138 152t198 59t193 -61t127 -152q138 -261 49 -617q-58 -230 -211 -334q-80 -54 -186 -54t-182 54t-128 138q-104 168 -104 390zM164 1383q0 31 24 63t60 57q79 55 128.5 55t74.5 -14t47 -32q56 -46 91 -46t58 15t46 34t44 34t47 15t47 -24 t21 -52t-20 -61t-50 -60q-68 -61 -128 -61q-42 0 -94 25q-98 47 -128 47t-52 -13t-46 -28q-62 -39 -96 -39t-54 27t-20 58zM338 571.5q0 -69.5 9 -125.5t25 -103q37 -109 92 -109q60 0 92 106q26 85 26 166.5t-8 134.5t-23 99q-35 106 -91 106q-55 0 -91 -110 q-31 -95 -31 -164.5z" />
<glyph unicode="&#xf6;" horiz-adv-x="916" d="M30 524q0 242 106 425q54 93 138 152t198 59t193 -61t127 -152q138 -261 49 -617q-58 -230 -211 -334q-80 -54 -186 -54t-182 54t-128 138q-104 168 -104 390zM164 1427q0 59 36 101t97 42t100 -41t39 -100t-39 -93t-96 -34t-97 33t-40 92zM338 571.5q0 -69.5 9 -125.5 t25 -103q37 -109 92 -109q60 0 92 106q26 85 26 166.5t-8 134.5t-23 99q-35 106 -91 106q-55 0 -91 -110q-31 -95 -31 -164.5zM550 1437q0 59 37 101t98 42t99 -41t38 -100t-38 -93t-95 -34t-98 33t-41 92z" />
<glyph unicode="&#xf7;" horiz-adv-x="900" d="M30 532q0 83 337 93q35 1 58 1t97 -3t151 -14q195 -28 195 -77q0 -61 -400 -71q-40 -1 -56 -1q-382 0 -382 72zM334 870q0 50 29 84t80 34t83 -33t32 -83t-32 -77t-79 -27t-80 26t-33 76zM340 230q0 48 29 83t80 35t83 -32t32 -82t-32 -77t-78 -27t-80 26t-34 74z" />
<glyph unicode="&#xf8;" horiz-adv-x="916" d="M30 523q0 107 26 220t80 206t138 152t189 59t179 -46q105 160 158 160q42 0 42 -78t-60 -232q54 -94 76 -207t16 -216t-33 -211t-79 -194q-117 -194 -322 -194q-74 0 -134 30q-110 -178 -160 -178q-46 0 -46 77.5t54 230.5q-62 88 -93 201t-31 220zM338 571.5 q0 -69.5 9 -125.5t25 -103q37 -109 92 -109q60 0 92 106q26 85 26 166.5t-8 134.5t-23 99q-35 106 -91 106q-55 0 -91 -110q-31 -95 -31 -164.5z" />
<glyph unicode="&#xf9;" horiz-adv-x="998" d="M40 564q0 156 51 327q39 130 106 207q35 40 76 40t65 -22t38 -55q22 -52 22 -117q0 -77 -15 -168q-29 -174 -29 -270q0 -218 114 -218q132 0 148 188q4 48 4 112t-12 149q-24 170 -24 200.5t10 60.5t28 54q40 54 93 54t87 -31t57 -80t38 -110t24 -120q15 -98 15 -200.5 t-22 -210.5t-74 -193q-116 -189 -356 -189q-238 0 -351 186q-93 153 -93 406zM328 1455.5q0 34.5 22 57.5t52 23q57 0 147 -92q37 -38 62 -80t25 -65q0 -41 -42 -41q-36 0 -75 23t-62 37t-44 28t-40 32q-45 43 -45 77.5z" />
<glyph unicode="&#xfa;" horiz-adv-x="998" d="M40 564q0 156 51 327q39 130 106 207q35 40 76 40t65 -22t38 -55q22 -52 22 -117q0 -77 -15 -168q-29 -174 -29 -270q0 -218 114 -218q132 0 148 188q4 48 4 112t-12 149q-24 170 -24 200.5t10 60.5t28 54q40 54 93 54t87 -31t57 -80t38 -110t24 -120q15 -98 15 -200.5 t-22 -210.5t-74 -193q-116 -189 -356 -189q-238 0 -351 186q-93 153 -93 406zM452 1294q0 61 80 157q82 99 142 99q28 0 51 -23t23 -49t-12 -47t-29 -39t-37 -33l-36 -27q-14 -10 -31 -23t-36 -24q-47 -27 -75 -27q-40 0 -40 36z" />
<glyph unicode="&#xfb;" horiz-adv-x="998" d="M40 564q0 156 51 327q39 130 106 207q35 40 76 40t65 -22t38 -55q22 -52 22 -117q0 -77 -15 -168q-29 -174 -29 -270q0 -218 114 -218q132 0 148 188q4 48 4 112t-12 149q-24 170 -24 200.5t10 60.5t28 54q40 54 93 54t87 -31t57 -80t38 -110t24 -120q15 -98 15 -200.5 t-22 -210.5t-74 -193q-116 -189 -356 -189q-238 0 -351 186q-93 153 -93 406zM288 1291q0 27 26 73t64 88q92 102 154 102t153 -98q89 -96 89 -160q0 -16 -6 -20t-25 -4t-48 12t-58 30q-59 37 -101 74q-20 -16 -47 -38t-57 -41t-60 -32t-57 -13t-27 27z" />
<glyph unicode="&#xfc;" horiz-adv-x="998" d="M40 564q0 156 51 327q39 130 106 207q35 40 76 40t65 -22t38 -55q22 -52 22 -117q0 -77 -15 -168q-29 -174 -29 -270q0 -218 114 -218q132 0 148 188q4 48 4 112t-12 149q-24 170 -24 200.5t10 60.5t28 54q40 54 93 54t87 -31t57 -80t38 -110t24 -120q15 -98 15 -200.5 t-22 -210.5t-74 -193q-116 -189 -356 -189q-238 0 -351 186q-93 153 -93 406zM184 1407q0 59 36 101t97 42t100 -41t39 -100t-39 -93t-96 -34t-97 33t-40 92zM570 1417q0 59 37 101t98 42t99 -41t38 -100t-38 -93t-95 -34t-98 33t-41 92z" />
<glyph unicode="&#xfd;" horiz-adv-x="1060" d="M32 712q12 259 96 369q36 47 84 44t72 -34t39 -77t22 -101t9 -109t1 -99t-1 -74t2 -63t14 -61q26 -59 108 -59q132 0 148 175q4 45 4 79v74q0 177 31 249q34 79 105 79q164 0 210 -431q14 -131 14 -226t-6 -202t-23 -220t-51 -222t-89 -195t-135 -138t-192 -52t-224 58 q-128 66 -128 160q0 42 27 66q47 42 80 42q45 0 87 -17q81 -33 125.5 -33t81.5 34t63 89t42 122t25 133q12 85 19 218q-70 -106 -139 -163t-157 -57t-145 32t-97 84t-66 119t-39 139q-26 142 -17 268zM452 1256q0 61 80 157q82 99 142 99q28 0 51 -23t23 -49t-12 -47 t-29 -39t-37 -33l-36 -27q-14 -10 -31 -23t-36 -24q-47 -27 -75 -27q-40 0 -40 36z" />
<glyph unicode="&#xfe;" horiz-adv-x="1036" d="M62 351v267q0 633 94 837q30 65 80 65t80 -60t42 -141q14 -95 14 -285v-28q130 116 276 116q176 0 263 -185q65 -139 65 -341q0 -222 -83 -388q-45 -90 -119 -150t-184 -60q-156 0 -198 90q-2 -34 -3 -97t-6 -136t-14 -149t-27 -138q-41 -140 -122 -140q-77 0 -118 241 q-40 233 -40 682zM376 584q0 -116 11 -149t31 -48t44 -27q48 -24 91 -24t69 32t41 76q25 73 25 168q0 119 -59 163q-23 17 -66 17t-80 -16t-61 -44q-46 -54 -46 -148z" />
<glyph unicode="&#xff;" horiz-adv-x="1060" d="M32 712q12 259 96 369q36 47 84 44t72 -34t39 -77t22 -101t9 -109t1 -99t-1 -74t2 -63t14 -61q26 -59 108 -59q132 0 148 175q4 45 4 79v74q0 177 31 249q34 79 105 79q164 0 210 -431q14 -131 14 -226t-6 -202t-23 -220t-51 -222t-89 -195t-135 -138t-192 -52t-224 58 q-128 66 -128 160q0 42 27 66q47 42 80 42q45 0 87 -17q81 -33 125.5 -33t81.5 34t63 89t42 122t25 133q12 85 19 218q-70 -106 -139 -163t-157 -57t-145 32t-97 84t-66 119t-39 139q-26 142 -17 268zM184 1407q0 59 36 101t97 42t100 -41t39 -100t-39 -93t-96 -34t-97 33 t-40 92zM570 1417q0 59 37 101t98 42t99 -41t38 -100t-38 -93t-95 -34t-98 33t-41 92z" />
<glyph unicode="&#x152;" horiz-adv-x="1708" d="M40 725.5q0 102.5 15 188.5t44 178t72 181t99 160q125 159 274 159q165 0 275 -126q35 -40 53 -88q22 65 43 88.5t56 34.5t82 18t101 11t104 6t91 2h63q120 0 163 -17t67 -48t24 -81t-18 -76t-56 -46t-95 -36t-118 -27q-111 -20 -225 -25q-16 -58 -20 -116l-8 -116 q158 56 256 56t145 -36t47 -116t-40 -115t-108 -52t-142 -33t-148 -34q-14 -42 -14 -84t20 -202q98 6 193 14t159 11t92 -10t48 -34q44 -46 44 -99.5t-35 -88.5t-89 -59t-122 -40t-133 -25q-215 -30 -284 2q-94 43 -171 163q-44 -110 -143 -167t-197 -57t-162 44t-114 114 t-86 159t-58 180q-44 182 -44 284.5zM370 760q0 -113 27 -209.5t47 -136.5q46 -92 102 -92t91 46t53 110q30 107 30 236q0 246 -84 374q-34 52 -86 52t-86 -46t-55 -108q-39 -115 -39 -226z" />
<glyph unicode="&#x153;" horiz-adv-x="1566" d="M20 542q0 108 30 233t91 233t156 179t225 71q232 0 298 -230q160 194 348 194q131 0 223 -86q91 -85 91 -220q0 -184 -146 -319q-137 -126 -326 -139q8 -58 47 -84t86 -26t85 21t74 45t71 45t73 21t69 -27t31 -82t-43 -120t-107 -116t-138 -82t-150 -31t-139 23t-105 60 q-66 58 -116 173q-85 -136 -145 -185q-117 -97 -231 -97t-179 55t-104 138q-69 147 -69 353zM324 584q0 -128 46 -200q18 -28 51 -28t60 41t45 96t27 111t9 79t-3 60t-12 74q-22 91 -71 91q-68 0 -115 -130q-37 -101 -37 -194zM998 728q101 22 138.5 40t62.5 44t25 58 t-14 59t-51 27t-68 -23t-50 -57q-32 -58 -43 -148z" />
<glyph unicode="&#x178;" horiz-adv-x="890" d="M20 1278q0 56 8 99t27 80q45 87 127 87q92 0 163 -138t117 -412q10 -60 18 -94q51 190 110.5 323t98.5 197q89 146 173 146q54 0 81 -74q19 -52 19 -128t-23 -182t-59 -214q-62 -187 -119 -310.5t-86 -190.5t-65 -143t-77 -153t-85 -138q-100 -139 -182 -139 q-64 0 -91 47t-27 105q0 167 196 468q-40 10 -78 36t-56 62q-122 267 -172 519q-18 91 -18 147zM206 1777q0 59 36 101t97 42t100 -41t39 -100t-39 -93t-96 -34t-97 33t-40 92zM592 1787q0 59 37 101t98 42t99 -41t38 -100t-38 -93t-95 -34t-98 33t-41 92z" />
<glyph unicode="&#x2c6;" horiz-adv-x="610" d="M62 1251q0 27 26 73t64 88q92 102 154 102t153 -98q89 -96 89 -160q0 -16 -6 -20t-25 -4t-48 12t-58 30q-59 37 -101 74q-20 -16 -47 -38t-57 -41t-60 -32t-57 -13t-27 27z" />
<glyph unicode="&#x2dc;" horiz-adv-x="812" d="M62 1321q0 31 24 63t60 57q79 55 128.5 55t74.5 -14t47 -32q56 -46 91 -46t58 15t46 34t44 34t47 15t47 -24t21 -52t-20 -61t-50 -60q-68 -61 -128 -61q-42 0 -94 25q-98 47 -128 47t-52 -13t-46 -28q-62 -39 -96 -39t-54 27t-20 58z" />
<glyph unicode="&#x2000;" horiz-adv-x="965" />
<glyph unicode="&#x2001;" horiz-adv-x="1930" />
<glyph unicode="&#x2002;" horiz-adv-x="965" />
<glyph unicode="&#x2003;" horiz-adv-x="1930" />
<glyph unicode="&#x2004;" horiz-adv-x="643" />
<glyph unicode="&#x2005;" horiz-adv-x="482" />
<glyph unicode="&#x2006;" horiz-adv-x="321" />
<glyph unicode="&#x2007;" horiz-adv-x="321" />
<glyph unicode="&#x2008;" horiz-adv-x="241" />
<glyph unicode="&#x2009;" horiz-adv-x="386" />
<glyph unicode="&#x200a;" horiz-adv-x="107" />
<glyph unicode="&#x2010;" horiz-adv-x="920" d="M40 510q0 60 189 83q108 13 191.5 13t120.5 -2t80 -7t89 -13t83 -18q85 -23 85 -56q0 -61 -400 -71q-40 -1 -56 -1q-382 0 -382 72z" />
<glyph unicode="&#x2011;" horiz-adv-x="920" d="M40 510q0 60 189 83q108 13 191.5 13t120.5 -2t80 -7t89 -13t83 -18q85 -23 85 -56q0 -61 -400 -71q-40 -1 -56 -1q-382 0 -382 72z" />
<glyph unicode="&#x2012;" horiz-adv-x="920" d="M40 510q0 60 189 83q108 13 191.5 13t120.5 -2t80 -7t89 -13t83 -18q85 -23 85 -56q0 -61 -400 -71q-40 -1 -56 -1q-382 0 -382 72z" />
<glyph unicode="&#x2013;" horiz-adv-x="1042" d="M62 512q0 20 33 37t84 27t112 16t120 9q98 5 146.5 5t85.5 -2t80 -7t89 -13t83 -18q85 -23 85 -56q0 -61 -400 -71q-40 -1 -55 -1h-54q-280 0 -378 41q-31 13 -31 33z" />
<glyph unicode="&#x2014;" horiz-adv-x="1166" d="M62 512q0 20 34 37t87 27t118 16t125 9q100 5 150 5t94 -2t100 -7t115 -13t108 -18q111 -23 111 -56q0 -60 -497 -71q-47 -1 -62 -1h-55q-295 0 -396 41q-32 13 -32 33z" />
<glyph unicode="&#x2018;" horiz-adv-x="408" d="M62 1172q0 69 43 148.5t75 113.5t57 34t36 -12t11 -32t-11 -42t-24 -43q-36 -57 -33 -83q30 20 70 20t71 -37t31 -90t-41 -93t-108 -40t-122 39t-55 117z" />
<glyph unicode="&#x2019;" horiz-adv-x="410" d="M20 1359q0 55 42 93t110 38t122 -37t54 -115q0 -69 -42 -149q-77 -149 -136 -149q-40 0 -40 42q0 33 22 71.5t32 58.5t10 42q-31 -22 -70.5 -22t-71.5 36t-32 91z" />
<glyph unicode="&#x201a;" horiz-adv-x="410" d="M20 130q0 54 42 93t110 39t122 -38t54 -110.5t-42 -152.5q-77 -149 -136 -149q-40 0 -40 40q0 33 22 72q42 73 42 100q-30 -20 -70 -20t-72 36t-32 90z" />
<glyph unicode="&#x201c;" horiz-adv-x="770" d="M62 1172q0 69 43 148.5t75 113.5t57 34t36 -12t11 -32t-11 -42t-24 -43q-36 -57 -33 -83q30 20 70 20t71 -37t31 -90t-41 -93t-108 -40t-122 39t-55 117zM424 1170q0 71 60 182q63 116 122 116q16 0 28 -12t12 -32t-11 -42t-24 -43q-33 -53 -33 -83q30 20 69 20t71 -37 t32 -90t-42 -93t-109 -40t-121 39t-54 115z" />
<glyph unicode="&#x201d;" horiz-adv-x="770" d="M20 1344q0 54 42 93t110 39t122 -37t54 -111.5t-42 -154.5q-77 -149 -136 -149q-40 0 -40 44q0 31 22 70q42 73 42 98q-30 -20 -70 -20t-72 37t-32 91zM382 1350q0 54 42 92t110 38t121 -37t53 -113.5t-60.5 -188t-115.5 -111.5q-40 0 -40 42q0 30 23 70t33 60t8 42 q-28 -22 -69 -22t-73 37t-32 91z" />
<glyph unicode="&#x201e;" horiz-adv-x="770" d="M20 115q0 53 42 93t110 40t122 -38t54 -111.5t-42 -153.5q-77 -149 -136 -149q-40 0 -40 42q0 31 22 70q42 73 42 100q-30 -20 -70 -20t-72 37t-32 90zM382 121q0 53 42 92t110 39t121 -38t53 -113.5t-42 -153t-73 -111.5t-61 -34q-40 0 -40 40q0 30 23 70t33 61t8 41 q-30 -20 -70 -20t-72 37t-32 90z" />
<glyph unicode="&#x2022;" horiz-adv-x="416" d="M40 743q0 73 44 129t121 56t123 -54t46 -128t-45 -119t-118 -45t-122 44t-49 117z" />
<glyph unicode="&#x2026;" horiz-adv-x="1272" d="M20 131q0 57 46 84t85 27t72 -10t62 -29t47 -46t18 -57t-12 -51t-31 -35q-41 -30 -80 -30t-74 11t-64 31q-69 48 -69 105zM472 129.5q0 58.5 45 85.5t84 27t72 -10t62 -29t47 -46t18 -70t-42 -73t-81 -30t-73 11t-64 31q-68 45 -68 103.5zM922 134q0 75 90 101q24 7 51 7 t61 -10t62 -29t47 -46t19 -70t-43 -73t-82 -30t-73 11t-64 31q-68 45 -68 108z" />
<glyph unicode="&#x202f;" horiz-adv-x="386" />
<glyph unicode="&#x2039;" horiz-adv-x="454" d="M20 323q0 19 21 55t54 77t74 83t81 76q89 76 126.5 76t37.5 -36t-23 -83t-55 -93q-61 -87 -126 -158q188 -205 188 -298q0 -38 -26 -38q-50 0 -203 142q-82 76 -115.5 127t-33.5 70z" />
<glyph unicode="&#x203a;" horiz-adv-x="448" d="M40 24q0 34 22 76t53 83t65 77t56 60q-190 242 -190 336q0 16 5 28t26 12t55 -22t73 -57t79 -79t72 -86q72 -94 72 -136q0 -53 -154 -189q-156 -137 -206 -137q-28 0 -28 34z" />
<glyph unicode="&#x205f;" horiz-adv-x="482" />
<glyph unicode="&#x20ac;" horiz-adv-x="1240" d="M0 792q0 48 23 65t59 23t74 8l76 4q41 172 176 286q137 116 310 116q128 0 293 -52q207 -65 207 -168q0 -40 -28 -72t-66 -32t-71 19t-72 41q-106 60 -203 60q-175 0 -265 -107q-31 -37 -35 -91q228 6 273 6t82 2t74 -3q91 -12 91 -71q0 -48 -117 -73q-115 -25 -332 -20 q-45 1 -63 1v-74q114 6 180 6t104 1t76 -3q96 -10 96 -64q0 -91 -385 -81q-39 1 -55 1q16 -90 87 -142t158 -52t146 16t99 35t69 35t59 16t60 -27t30 -63t-28 -66t-71 -56t-97 -47t-107 -35q-114 -30 -183.5 -30t-148.5 32t-144 86q-141 117 -177 282q-126 0 -167 12 q-75 22 -75 78q0 39 43 50.5t89 13.5t88 4l6 56q-40 4 -91 6t-89 10q-58 10 -58 58z" />
<glyph unicode="&#x2122;" horiz-adv-x="888" d="M-20 178q0 85 132 264q-8 44 -8 102t14 120q-116 195 -116 286q0 42 30 66t82 24q87 0 174 -96q74 52 171 52t171 -52q56 50 99 71t90 21t69 -27t22 -69q0 -77 -96 -198l-38 -52q33 -159 -24 -326q94 -129 94 -196q0 -34 -29 -63t-83.5 -29t-151.5 68q-72 -36 -158.5 -36 t-167.5 64q-99 -84 -178 -84q-46 0 -72 27t-26 63zM328 565.5q0 -49.5 9 -86.5t25 -69q37 -74 92 -74q58 0 90 72q26 59 26 114.5t-8 91.5t-23 67q-35 73 -89 73q-55 0 -91 -75q-31 -64 -31 -113.5z" />
<glyph unicode="&#xe000;" horiz-adv-x="1120" d="M0 0v1120h1120v-1120h-1120z" />
<glyph unicode="&#xfb01;" horiz-adv-x="1108" d="M-72 746q0 38 29 66t71 46q64 28 164 40v36q0 406 209 573q79 63 203 63q145 0 226 -119q68 -100 68 -255q0 -190 -152 -190q-113 0 -117 132q-2 84 -16.5 108t-45.5 24t-50 -46t-30 -106q-21 -115 -21 -194q80 8 143 8t117 -1t104 -13q115 -28 154 -116q42 -98 42 -347 v-107q0 -149 -13 -209.5t-43 -100.5t-80 -40t-78 35t-47 90t-29 122t-15 131q-7 90 -7 174t6 142q-96 -20 -242 -34q6 -138 6 -274t-6 -264q-4 -62 -43 -102t-87 -40t-73 13t-41 35q-30 41 -37 134q-20 264 -17 458q-14 -2 -26 -2h-28q-121 0 -177 67q-21 25 -21 63z" />
<glyph unicode="&#xfb02;" horiz-adv-x="1030" d="M-72 746q0 38 29 66t71 46q64 28 164 40v36q0 241 82 412q46 96 124 160t177 64t156 -40t97 -104t65 -146t39 -164q24 -141 24 -234.5t1 -172.5t-1 -176t-10 -200t-27 -188q-43 -193 -129 -193q-138 0 -138 498v80q0 86 4 166q-75 -29 -178 -38q6 -138 6 -240 q0 -202 -5 -281t-43 -119t-87 -40t-73 13t-40 35q-32 44 -39 136q-20 262 -17 456q-14 -2 -26 -2h-28q-121 0 -177 67q-21 25 -21 63zM466 924q60 8 113 8t93 -6q4 32 4 59t-5 74t-17 94q-30 117 -88 117q-71 0 -95 -269q-5 -57 -5 -77z" />
</font>
</defs>
</svg>
