<svg width="353" height="413" xmlns="http://www.w3.org/2000/svg">

 <metadata>Chemistry FlaskA chemistry flask with the "required" bubbles ;).chemistryscienceapparatussymbolsOpen Clip Art LibraryMatthew WardropPublic Domain23-07-05image/svg+xmlen</metadata>
 <g label="Layer 1" id="imagebot_2">
  <g label="Layer 1" transform="translate(0.598099 -2.2196) translate(-192.857 -178.571)" id="imagebot_10">
   <path fill="none" fill-opacity="0.75" fill-rule="evenodd" stroke="#000000" stroke-width="1.9" stroke-miterlimit="4" id="imagebot_11" d="M 437.129 183.777 C 435.761 182.976 434.478 182.792 433.286 183.027 C 429.71 183.73 427.069 188.262 426.286 191.621 C 425.888 200.132 425.759 208.69 425.692 217.246 M 300.004 183.996 C 305.478 180.791 309.836 187.361 310.879 191.839 C 311.463 201.221 311.23 207.404 311.384 217.098 C 310.911 238.458 311.167 259.111 311.442 279.652 C 276.549 360.352 238.167 440.133 204.848 521.746 C 192.259 546.018 197.13 587.362 229.348 591.964 C 281.054 593.931 332.854 593.586 384.629 593.339 C 399.634 593.375 414.629 593.3 429.629 593.214 C 432.587 593.217 435.547 593.174 438.504 593.183 L 438.504 593.152 C 461.613 592.962 484.733 592.622 507.817 591.746 C 540.036 587.143 544.906 545.83 532.317 521.558 C 498.998 439.946 460.616 360.134 425.723 279.433 C 426 258.737 425.529 237.957 425.692 217.246"/>
  </g>
  <path transform="translate(0.598099 -2.2196)" label="Layer 1" opacity="0.92" fill="#ffffff" fill-rule="evenodd" stroke-width="1px" id="imagebot_8" d="M 73.9721 201.562 C 39.0794 282.263 45.6976 261.356 12.3783 342.968 C -0.21078 367.241 4.65963 408.554 36.8783 413.156 C 83.1013 414.914 129.403 414.816 175.691 414.593 C 221.978 414.816 268.249 414.914 314.472 413.156 C 346.691 408.554 351.592 367.241 339.003 342.968 C 305.684 261.356 312.271 282.263 277.378 201.562 L 271.615 188.227 C 272.938 191.555 272.729 200.937 264.816 200.875 C 236.555 201.129 206.072 201.455 175.691 201.656 C 145.309 201.455 114.796 201.129 86.5346 200.875 C 85.086 200.728 75.1877 198.228 79.2982 188.619 C 80.2836 186.315 75.0995 198.184 73.9721 201.562 Z"/>
  <path transform="translate(0.598099 -2.2196)" label="Layer 1" opacity="0.92" fill="#ffffff" fill-opacity="0.52" stroke="#ffffff" stroke-width="1.9" stroke-miterlimit="4" id="imagebot_5" d="M 171.429 58.0765 A 10.7143 10 0 1 1 150 58.0765 A 10.7143 10 0 1 1 171.429 58.0765 Z"/>
  <path transform="translate(0.598099 -2.2196)" label="Layer 1" opacity="0.92" fill="#24b9ef" fill-opacity="0" stroke="#ffffff" stroke-width="1.9" stroke-miterlimit="4" id="imagebot_4" d="M 215.714 119.505 A 6.42857 7.14286 0 1 1 202.857 119.505 A 6.42857 7.14286 0 1 1 215.714 119.505 Z"/>
  <path transform="translate(0.598099 -2.2196)" label="Layer 1" opacity="0.92" fill="#ffffff" fill-opacity="0.52" stroke="#ffffff" stroke-width="1.9" stroke-miterlimit="4" id="imagebot_3" d="M 174.286 148.791 A 5.71429 5 0 1 1 162.857 148.791 A 5.71429 5 0 1 1 174.286 148.791 Z"/>
  <title>Layer 1</title>
 </g>
</svg>