<?xml version="1.0" encoding="UTF-8" ?>
<!DOCTYPE svg PUBLIC "-//W3C//DTD SVG 1.1//EN" "http://www.w3.org/Graphics/SVG/1.1/DTD/svg11.dtd">
<svg width="300pt" height="300pt" viewBox="0 0 300 300" version="1.1" xmlns="http://www.w3.org/2000/svg">
<g id="#ffffffff">
<path fill="#ffffff" opacity="1.00" d=" M 23.61 15.65 C 24.99 15.10 26.51 15.05 27.99 15.00 C 61.99 15.00 96.00 15.00 130.00 15.00 C 135.58 14.58 141.19 19.24 140.98 25.01 C 141.01 59.67 141.03 94.33 140.97 128.99 C 141.19 134.77 135.60 139.44 130.01 139.01 C 96.00 139.00 62.00 139.00 27.99 139.00 C 22.40 139.44 16.80 134.77 17.04 128.99 C 16.97 94.33 16.97 59.67 17.04 25.01 C 16.88 20.81 19.80 17.14 23.61 15.65 M 76.92 46.84 C 72.92 54.22 72.73 62.88 72.80 71.07 C 63.48 71.34 52.46 69.75 44.81 76.21 C 44.45 78.83 46.45 80.71 48.90 81.13 C 56.37 82.87 64.13 82.91 71.77 83.01 C 72.59 91.50 72.85 100.97 78.18 108.04 C 78.86 108.04 80.22 108.05 80.90 108.06 C 87.00 100.94 85.52 90.72 86.51 82.03 C 94.80 81.67 103.66 83.08 111.41 79.44 C 114.30 78.23 113.45 74.10 110.68 73.33 C 102.98 70.55 94.57 71.18 86.52 70.99 C 86.11 62.26 87.29 52.28 81.90 44.81 C 80.11 45.05 77.79 44.86 76.92 46.84 Z" />
<path fill="#ffffff" opacity="1.00" d=" M 167.61 15.65 C 168.99 15.10 170.51 15.05 171.98 15.00 C 205.99 15.00 240.00 15.00 274.01 15.00 C 279.58 14.58 285.18 19.23 284.98 25.00 C 285.01 59.66 285.03 94.33 284.97 128.99 C 285.19 134.77 279.60 139.45 274.01 139.01 C 240.00 139.00 206.00 139.00 171.99 139.00 C 166.40 139.44 160.80 134.77 161.04 128.99 C 160.97 94.33 160.97 59.66 161.04 25.01 C 160.88 20.80 163.81 17.14 167.61 15.65 M 206.89 71.61 C 201.06 72.43 194.34 72.63 189.93 77.06 C 189.94 77.77 189.94 79.17 189.94 79.88 C 195.24 83.40 201.91 83.33 208.01 83.95 C 222.92 83.84 238.28 85.01 252.75 80.77 C 256.41 79.90 254.77 75.66 251.82 75.17 C 237.46 70.17 221.86 70.42 206.89 71.61 Z" />
<path fill="#ffffff" opacity="1.00" d=" M 23.61 160.65 C 25.00 160.10 26.52 160.04 27.99 160.00 C 62.00 160.00 96.00 160.00 130.01 160.00 C 135.59 159.58 141.18 164.24 140.98 170.00 C 141.01 204.67 141.03 239.33 140.97 274.00 C 141.19 279.77 135.60 284.44 130.01 284.01 C 96.00 284.00 61.99 284.00 27.98 284.00 C 22.40 284.43 16.80 279.77 17.04 273.99 C 16.97 239.33 16.97 204.67 17.04 170.01 C 16.88 165.81 19.81 162.14 23.61 160.65 M 55.04 192.86 C 54.17 194.92 53.35 197.33 54.52 199.46 C 58.25 207.74 63.88 214.96 69.28 222.19 C 62.63 228.61 55.96 235.33 51.56 243.55 C 50.25 245.92 50.02 250.96 54.02 250.06 C 64.03 248.52 70.87 239.82 77.54 232.93 C 84.15 239.14 89.75 247.87 99.06 250.03 C 103.32 251.32 103.98 246.27 102.63 243.41 C 99.21 235.59 93.05 229.50 87.32 223.36 C 93.88 214.03 104.07 205.89 106.02 194.23 C 103.70 192.54 100.59 192.60 98.28 194.26 C 90.87 199.11 84.78 205.63 78.81 212.09 C 75.07 207.25 70.78 202.87 66.39 198.62 C 63.24 195.72 59.67 192.39 55.04 192.86 Z" />
<path fill="#ffffff" opacity="1.00" d=" M 167.61 160.65 C 169.00 160.10 170.52 160.04 171.99 160.00 C 206.00 160.00 240.00 160.00 274.01 160.00 C 279.59 159.58 285.18 164.24 284.98 170.01 C 285.01 204.67 285.03 239.33 284.97 273.99 C 285.19 279.76 279.60 284.44 274.01 284.01 C 240.00 284.00 205.99 284.00 171.98 284.00 C 166.40 284.43 160.80 279.77 161.04 273.99 C 160.97 239.33 160.97 204.67 161.04 170.01 C 160.88 165.81 163.81 162.14 167.61 160.65 M 218.30 191.15 C 213.24 192.81 211.58 199.00 213.16 203.67 C 216.44 210.23 228.58 209.59 230.03 201.94 C 231.84 195.11 224.90 188.96 218.30 191.15 M 192.43 222.50 C 189.14 223.36 187.54 228.32 191.57 229.42 C 204.58 233.62 218.55 231.89 232.01 231.96 C 239.41 231.25 247.20 231.19 254.02 227.87 C 254.03 227.18 254.04 225.81 254.05 225.12 C 247.23 220.02 238.03 220.38 229.94 219.14 C 217.44 219.04 204.34 217.98 192.43 222.50 M 218.46 240.33 C 213.48 242.37 211.42 249.20 214.29 253.71 C 218.27 259.06 228.92 258.22 230.44 251.14 C 232.73 244.19 225.08 237.64 218.46 240.33 Z" />
</g>
</svg>
