<?xml version="1.0" encoding="UTF-8" standalone="no"?>
<svg
   xmlns:dc="http://purl.org/dc/elements/1.1/"
   xmlns:cc="http://creativecommons.org/ns#"
   xmlns:rdf="http://www.w3.org/1999/02/22-rdf-syntax-ns#"
   xmlns:svg="http://www.w3.org/2000/svg"
   xmlns="http://www.w3.org/2000/svg"
   xmlns:sodipodi="http://sodipodi.sourceforge.net/DTD/sodipodi-0.dtd"
   xmlns:inkscape="http://www.inkscape.org/namespaces/inkscape"
   width="548.83411"
   height="784.42328"
   viewBox="0 0 439.06729 627.53862"
   version="1.1"
   id="svg2"
   inkscape:version="0.47 r22583"
   sodipodi:docname="Image.svg">
  <metadata
     id="metadata72">
    <rdf:RDF>
      <cc:Work
         rdf:about="">
        <dc:format>image/svg+xml</dc:format>
        <dc:type
           rdf:resource="http://purl.org/dc/dcmitype/StillImage" />
      </cc:Work>
    </rdf:RDF>
  </metadata>
  <defs
     id="defs70">
    <inkscape:perspective
       sodipodi:type="inkscape:persp3d"
       inkscape:vp_x="0 : 500 : 1"
       inkscape:vp_y="0 : 1000 : 0"
       inkscape:vp_z="723.75 : 500 : 1"
       inkscape:persp3d-origin="361.875 : 333.33333 : 1"
       id="perspective74" />
    <clipPath
       clipPathUnits="userSpaceOnUse"
       id="clipPath3223">
      <rect
         style="fill:#0000ff;fill-rule:evenodd;stroke:#000000;stroke-width:0.80000001px;stroke-linecap:butt;stroke-linejoin:miter;stroke-opacity:1"
         id="rect3225"
         width="441.93549"
         height="629.03229"
         x="103.22581"
         y="32.258064" />
    </clipPath>
  </defs>
  <sodipodi:namedview
     pagecolor="#ffffff"
     bordercolor="#666666"
     borderopacity="1"
     objecttolerance="10"
     gridtolerance="10"
     guidetolerance="10"
     inkscape:pageopacity="0"
     inkscape:pageshadow="2"
     inkscape:window-width="1600"
     inkscape:window-height="1151"
     id="namedview68"
     showgrid="false"
     inkscape:zoom="0.992"
     inkscape:cx="415.94594"
     inkscape:cy="379.52978"
     inkscape:window-x="0"
     inkscape:window-y="29"
     inkscape:window-maximized="1"
     inkscape:current-layer="svg2" />
  <g
     id="g3178"
     clip-path="url(#clipPath3223)"
     transform="translate(-103.22581,-32.258064)"
     style="opacity:0.98">
    <g
       id="#000000ff">
      <path
         id="path5"
         d="M 0,0 0.18,0 C 0.14,0.05 0.05,0.14 0,0.18 L 0,0 z"
         style="fill:#000000" />
      <path
         id="path7"
         d="m 222.28,45.58 c 56.12,-17.93 121.07,-1.01 162.4,40.74 38.74,37.56 58.09,95.27 45.57,148.27 -7.58,34.63 -28.46,64.87 -54.08,88.77 0.23,0.56 0.68,1.68 0.91,2.24 10.83,-5.86 18.22,-16.35 26.12,-25.53 21.31,-26.04 39.41,-54.52 59.78,-81.24 1.55,-3.79 5.23,-5.8 8.99,-6.88 2.4,-11.28 0.71,-23.3 5.05,-34.19 1.07,-2.34 1.99,-5.3 4.73,-6.13 -8.73,11.58 -6.19,26.88 -8.49,40.35 13.77,14.27 29.99,26.49 48.84,33.11 7.18,-4.1 8.89,-13.1 12,-20.15 4.97,-13.91 8.35,-28.83 6.76,-43.66 -0.91,-7.71 -4.26,-16.16 -11.66,-19.7 -6.18,-2.17 -14.04,-2.01 -19.14,2.51 -4.34,6.09 -5.96,13.67 -10.11,19.9 -0.49,-3.85 0.86,-8.73 -2.47,-11.57 -4.48,-3.41 -10.94,-3.85 -15.73,-0.79 5.52,-5.98 19.95,-2.01 19.56,7.34 3.3,-5.12 4.33,-11.61 8.54,-16.12 9.92,-7.69 26.29,-3.11 29.82,9.29 6.82,22 -0.79,45.58 -9.89,65.81 -1.46,4.99 -7.36,6.76 -8.13,11.96 -12.79,22.45 -26.03,44.88 -40.32,66.47 -19.51,26.98 -41,52.48 -63.95,76.58 12.79,34.46 15.58,71.48 17.63,107.86 2.46,4.35 3.05,9.29 1.75,14.12 4.6,19.75 10.05,39.31 15.24,58.92 0.92,3.68 6.31,8.71 1.65,11.75 -13.47,9.4 -28.57,16.29 -44.01,21.78 -11.17,3.65 -22.77,6.94 -34.61,6.85 -3.65,-3.39 -2.94,-8.76 -2.39,-13.19 -6.03,-13.02 -16.45,-25.52 -30.94,-29.01 -10.12,-2.6 -21.57,1.98 -26.73,11.14 -6.98,12.07 -5.61,27.2 -1.39,39.96 4.03,2.79 8.39,10.88 2.39,13.69 -17.92,9.35 -37.37,15.56 -57.12,19.69 -12.75,2.36 -25.97,4.42 -38.88,2.55 -3.8,-5.06 -1.9,-11.55 -0.44,-17.05 -2.62,-20.3 -5.54,-40.61 -8.49,-60.88 -1.55,-2.06 -3.47,-3.88 -4.45,-6.32 -3.93,4.39 -10.17,4.92 -14.53,0.85 -0.53,8.92 -6.68,17.16 -15.87,18.34 -8.77,0.42 -18.5,3.06 -26.47,-1.94 -5.93,-3.53 -8.76,-9.99 -11.66,-15.9 -4.4,-15.85 -1.55,-32.3 0.28,-48.23 -2.69,-1.82 -6.64,-3.26 -6.95,-7 -1.75,-9.19 -2.83,-18.56 -2.53,-27.93 0.25,-30.56 3.9,-61.19 11.68,-90.77 3.91,-14.06 8.37,-28.2 16.21,-40.63 3.28,-5.5 8.91,-9.32 11.42,-15.31 -7.68,-6.33 -4,-17.58 -3.66,-25.68 -36.2,-32.74 -60.19,-81.08 -56.94,-130.5 3.28,-65.82 52.28,-125.26 114.71,-144.54 m -28.3,13.39 c -38.04,21.16 -68.32,57.07 -79.97,99.27 -9.67,32.48 -6.7,67.97 6.51,99.01 9.61,22.74 24.74,42.82 42.23,60.09 4.31,4.46 9.58,8.07 15.69,9.52 12.08,4.64 24.27,9.44 37.03,11.84 -31.66,-48.32 -52.39,-105.39 -51.5,-163.7 0.98,-29.62 8.93,-59.93 27.78,-83.36 24.52,-31.53 64.71,-46.61 103.57,-49.28 -34.29,-7.38 -70.85,-0.2 -101.34,16.61 m 75.29,-11.83 c -22.06,5.06 -43.81,13.94 -60.96,29.05 -21.51,17.65 -34.94,43.81 -40.16,70.86 -5.47,28.58 -3.48,58.21 3.19,86.4 l 1.04,0.87 c -0.99,-24.89 -2.45,-50.21 3.41,-74.66 4.39,-19.55 13.48,-38.78 29.19,-51.73 17.91,-15.17 42.18,-19.54 65.03,-19.26 18.75,-0.64 39.53,-0.92 55.12,11.19 16.85,13.31 25.04,34.46 29.84,54.75 -2.44,-0.62 -4.9,-1.15 -7.37,-1.6 -18.03,-3.71 -37.99,8 -42.53,26.02 2.35,7.42 3.12,15.27 1.99,23 5.03,1.47 7.62,6.32 10.93,9.95 6.01,7.11 13.85,13.15 23,15.37 12.38,0.07 24.85,-6.49 31.35,-17.12 11.06,-16.43 6.12,-41.09 -10.74,-51.63 5.88,2.22 9.6,7.76 13.06,12.71 10.36,17.79 2.76,42.56 -14.92,52.64 0.18,4.39 0.4,8.77 0.57,13.16 3.75,2.99 9.3,6.3 8.48,11.88 -0.2,4.74 -4.78,7.14 -7.66,10.2 0.91,24.24 2.15,48.51 1.92,72.79 34.54,-26.34 61.52,-64.64 67.91,-108.23 6.28,-39.91 -4.88,-81.63 -28.28,-114.31 C 381.1,78.85 348.92,56.15 313,45.73 298.81,39.95 283.68,45.2 269.27,47.14 m -31.36,116.79 c -13.38,11.8 -17.31,32.64 -9.36,48.57 7.15,15.61 25.28,25.37 42.21,22.52 7.59,-3.58 16.51,-6.9 20.49,-14.88 4.31,-6.46 7.94,-13.95 14.77,-18.13 2.89,-16.37 -4.63,-34.3 -19.19,-42.68 -15.04,-9.28 -35.89,-7.34 -48.92,4.6 m 66.52,40.15 c -6.95,5.75 -10.43,14.45 -15.86,21.46 -8.72,8.21 -21.15,10.43 -30.67,17.37 -4.74,3.21 -1.65,9.41 1.81,12.31 10.4,9.35 24.79,12.34 38.29,13.82 18.55,1.37 37.76,0.05 55.15,-6.98 6,-2.75 12.94,-6.05 15.15,-12.81 -4.63,1.55 -9.33,3.2 -14.25,3.42 -22.31,1.29 -45,-3.44 -65.33,-12.43 21.53,7.58 44.32,13.95 67.38,11.51 4.07,-0.74 8.62,-1.27 11.97,-3.84 0.51,-2.79 -2.15,-5.15 -4.01,-6.95 -9.55,-7.84 -21.78,-11 -32.63,-16.51 -7.87,-4.1 -13.55,-11.11 -19.11,-17.82 -1.83,-2.22 -5.09,-4.86 -7.89,-2.55 m 159.29,15.8 c 4.66,6.16 11.2,10.51 17.23,15.22 11.13,7.85 22.29,16.11 35.05,21.15 2.9,-2.64 4.82,-6.19 5.4,-10.07 -18.66,-6.68 -34.73,-18.72 -48.51,-32.75 -4.18,-0.11 -7.7,2.63 -9.17,6.45 m -84.24,106.74 c 1.03,3.06 1.57,6.41 0.2,9.46 15.25,16.08 29.42,33.89 36.9,55.11 32.89,-34 63.12,-71.11 86.21,-112.49 0.28,-0.44 0.84,-1.33 1.12,-1.78 4.15,-6.11 8.04,-12.54 11.33,-19.19 -19.13,-9.43 -36.77,-21.85 -52.59,-36.12 -27.3,35.27 -49.6,75.08 -83.17,105.01 m -213.47,-4.55 c -2.24,7.07 -2.76,15.34 0.89,22.04 17.3,6.43 35.13,11.28 53.16,15.19 2.05,0.44 4.35,0.52 5.96,2.07 7.78,-0.23 15.42,1.88 23.08,3.03 20.21,2.17 40.59,3.01 60.85,1.08 23.96,-2.69 49.14,-9.3 66.77,-26.77 4.12,-3.97 3.77,-11.37 -1.6,-14.06 -23.46,21.74 -57.61,24.8 -88.1,24.57 -27.08,-0.18 -53.83,-5.38 -80.14,-11.34 -13.82,-4.67 -28.24,-8.38 -40.87,-15.81 m 189.18,53.88 c 2.38,1.99 4.68,4.06 7.04,6.08 6.01,-14.23 13.12,-27.96 21.3,-41.06 -1.16,-1.35 -2.4,-2.63 -3.67,-3.85 -9.71,11.84 -19.17,24.42 -24.67,38.83 m 28,-33.1 c -7.21,11.71 -13.72,23.87 -19.01,36.57 -0.67,1.46 -1.04,3.04 -0.59,4.63 2.06,11.59 4.33,23.13 6.25,34.74 17.45,2.22 36.2,3.55 52.72,-3.69 -4.91,-19.16 -11.47,-38.24 -23.27,-54.34 -4.44,-6.78 -10.73,-11.92 -16.1,-17.91 m -63.73,22.37 c -30.67,4.52 -61.89,1.92 -92.3,-3.19 18.71,7.7 37.85,14.84 55.83,24.31 23.73,-3.29 47.46,-6.58 71.18,-9.95 4.41,-12.38 12.33,-23.09 20,-33.62 -15.44,12.95 -35.07,19.41 -54.71,22.45 M 165.43,352.37 c 17.15,5.99 34.89,10.04 52.31,15.11 20.98,6.79 41.25,15.55 61.65,23.89 0.91,-1.28 1.85,-2.55 2.85,-3.77 -14.37,-9.13 -30.86,-14.99 -46.74,-21.21 -21.28,-8.76 -44.36,-11.76 -65.75,-20.22 -1.52,2.01 -2.99,4.05 -4.32,6.2 m -18.89,34.36 c -10.89,32.58 -15.41,67.06 -16.31,101.31 0.42,12.28 -1.02,25.71 4.82,36.93 22.96,7.81 47.3,1.75 70.83,1.12 4.19,-2.04 3.84,-7.23 3.56,-11.15 -1.26,-11.3 -3.55,-22.52 -3.26,-33.94 -1.1,-23.48 5.2,-47.22 17.02,-67.45 -6.24,13.38 -12.12,27.11 -14.69,41.77 26.62,7.65 54.66,-3.53 75.85,-19.59 -1.76,-14.55 -2.99,-29.18 -4.85,-43.72 -22.63,-8.78 -44.78,-19.01 -68.17,-25.69 -15.58,-4.02 -31.07,-8.38 -46.42,-13.19 -8.68,9.57 -14.14,21.53 -18.38,33.6 m 139.4,-0.05 c -3.47,0.05 -5.9,4.12 -5.38,7.34 1.56,13.46 2.88,26.96 4.46,40.41 1.87,2.53 4.27,4.6 6.36,6.94 25.1,-5.09 50.21,-10.11 75.32,-15.17 0.91,-3.34 2.81,-6.69 1.9,-10.24 -1.79,-9.95 -3.71,-19.87 -5.4,-29.84 -0.39,-4.5 -5.31,-6.2 -8.22,-8.93 -23.04,2.96 -46.01,6.43 -69.04,9.49 m 83.9,32.83 c -0.83,2.2 -1.47,4.47 -1.84,6.8 18.65,2.73 39.28,3.57 56.5,-5.16 -0.48,-1.78 -0.93,-3.55 -1.35,-5.33 -16.77,7.1 -35.65,5.57 -53.31,3.69 m 11.1,9.1 c -5.69,0.1 -11.3,-2.32 -16.96,-1.06 -24.1,4.92 -48.24,9.68 -72.33,14.59 -23.89,16.93 -54.77,30.22 -84.38,22.44 -1.2,15.5 -0.11,31.07 2.42,46.39 0.86,5.8 2,13.97 -4.87,16.57 -0.73,13.44 2.04,26.53 4.45,39.65 48.11,-1.82 95.35,-13.41 140.56,-29.5 28.65,-10.34 56.72,-22.37 83.75,-36.44 -1.11,-26.47 -2.36,-53.42 -9.26,-79.06 -13.34,6.64 -28.79,6.88 -43.38,6.42 m -172.33,27.6 c -0.74,2.54 -1.15,5.17 -1.1,7.83 17.84,5.26 36.85,0.99 53.7,-5.71 10.27,-4.28 20.54,-9.15 29.07,-16.41 -1.53,-2.09 -3.23,-4.05 -5.08,-5.87 -21.36,16.34 -49.63,27.55 -76.59,20.16 m 0.54,113.05 c -1.43,3.52 -0.25,10.13 4.81,8.79 76.49,-3.85 150.03,-30.13 218.12,-63.9 4.99,-1.29 3.58,-7.11 1.95,-10.58 -70.2,34.79 -145.95,62.16 -224.88,65.69 m 2.61,10.93 c 2.95,21.34 6.07,42.66 8.92,64.01 31.52,0.08 63.36,-6.15 91.82,-19.89 -4.4,-13.97 -6.21,-30.62 2.45,-43.37 6.43,-10.13 20.36,-13.3 31.18,-8.92 13.15,5.06 22.31,16.91 28.1,29.33 27.06,-2.89 53.33,-12.18 76.42,-26.52 -4.78,-20.09 -10.26,-40.01 -15.49,-59.99 -69.64,34.79 -145.01,61.73 -223.4,65.35 m -72.39,-52.93 c -1.58,5.32 2.67,8.49 7.55,8.42 17.8,1.83 35.98,0.96 53.52,-2.64 -0.01,-1.82 -0.26,-3.62 -0.52,-5.39 -20.07,1.35 -40.81,5.63 -60.55,-0.39 m 61.59,0.47 c 0.7,5.44 1.9,10.81 2.59,16.26 0.48,-5.41 0.79,-10.83 0.55,-16.26 -0.79,0 -2.35,0 -3.14,0 m -61.94,6.73 c -2.8,12.92 -3.23,26.54 0.04,39.41 1.86,7.1 5.53,14.45 12.35,17.93 6.35,3.34 13.76,2.14 20.59,1.58 6.31,-0.76 13.65,-2.82 16.49,-9.14 4.12,-8.19 1.53,-17.48 1.7,-26.17 0.33,0.35 0.98,1.05 1.31,1.4 0.95,5.82 -0.52,13.5 4.75,17.55 5.96,1.99 11.65,-3.72 11.09,-9.65 -0.92,-11.36 -4,-22.45 -6.8,-33.47 -20.11,3.66 -41.6,6.39 -61.52,0.56 m 234.63,68.26 c -0.94,3.52 -0.07,7.1 1.46,10.3 27.64,-1.32 53.92,-13.11 76.99,-27.78 4.26,-1.87 1.14,-6.79 -1.1,-9.01 -23.51,14.2 -49.97,23.62 -77.35,26.49 m -153.82,42.75 c -1.06,4.04 -1.83,9.43 1.29,12.64 23.35,1.79 46.55,-3.95 68.53,-11.35 9.68,-3.5 19.43,-7.17 28.22,-12.6 -0.28,-3.35 -1,-6.93 -3.85,-9.05 -29.26,14 -61.83,20.55 -94.19,20.36 z"
         style="fill:#000000" />
      <path
         id="path9"
         d="m 338.58,183.65 c 4.21,-2.37 9.97,1.51 8.92,6.36 -0.5,4.63 -6.8,6.63 -10.08,3.54 -3.15,-2.59 -2.46,-8.09 1.16,-9.9 z"
         style="fill:#000000" />
      <path
         id="path11"
         d="m 262.25,188.04 c 4.85,-1.01 9.41,5.28 6.3,9.41 -2.07,3.87 -8.08,4.1 -10.37,0.33 -2.93,-3.46 -0.21,-9.11 4.07,-9.74 z"
         style="fill:#000000" />
    </g>
    <g
       id="#ffffffff">
      <path
         id="path14"
         d="m 193.98,58.97 c 30.49,-16.81 67.05,-23.99 101.34,-16.61 -38.86,2.67 -79.05,17.75 -103.57,49.28 -18.85,23.43 -26.8,53.74 -27.78,83.36 -0.89,58.31 19.84,115.38 51.5,163.7 -12.76,-2.4 -24.95,-7.2 -37.03,-11.84 -6.11,-1.45 -11.38,-5.06 -15.69,-9.52 -17.49,-17.27 -32.62,-37.35 -42.23,-60.09 -13.21,-31.04 -16.18,-66.53 -6.51,-99.01 11.65,-42.2 41.93,-78.11 79.97,-99.27 z"
         style="fill:#ffffff" />
      <path
         id="path16"
         d="m 305.07,179.03 c 4.54,-18.02 24.5,-29.73 42.53,-26.02 4.87,1.32 9.46,3.44 14,5.59 16.86,10.54 21.8,35.2 10.74,51.63 -6.5,10.63 -18.97,17.19 -31.35,17.12 -9.15,-2.22 -16.99,-8.26 -23,-15.37 -3.31,-3.63 -5.9,-8.48 -10.93,-9.95 1.13,-7.73 0.36,-15.58 -1.99,-23 m 33.51,4.62 c -3.62,1.81 -4.31,7.31 -1.16,9.9 3.28,3.09 9.58,1.09 10.08,-3.54 1.05,-4.85 -4.71,-8.73 -8.92,-6.36 z"
         style="fill:#ffffff" />
      <path
         id="path18"
         d="m 237.91,163.93 c 13.03,-11.94 33.88,-13.88 48.92,-4.6 14.56,8.38 22.08,26.31 19.19,42.68 -6.83,4.18 -10.46,11.67 -14.77,18.13 -3.98,7.98 -12.9,11.3 -20.49,14.88 -16.93,2.85 -35.06,-6.91 -42.21,-22.52 -7.95,-15.93 -4.02,-36.77 9.36,-48.57 m 24.34,24.11 c -4.28,0.63 -7,6.28 -4.07,9.74 2.29,3.77 8.3,3.54 10.37,-0.33 3.11,-4.13 -1.45,-10.42 -6.3,-9.41 z"
         style="fill:#ffffff" />
      <path
         id="path20"
         d="m 379.48,326.62 c 33.57,-29.93 55.87,-69.74 83.17,-105.01 15.82,14.27 33.46,26.69 52.59,36.12 -3.29,6.65 -7.18,13.08 -11.33,19.19 -0.28,0.45 -0.84,1.34 -1.12,1.78 -23.09,41.38 -53.32,78.49 -86.21,112.49 -7.48,-21.22 -21.65,-39.03 -36.9,-55.11 1.37,-3.05 0.83,-6.4 -0.2,-9.46 z"
         style="fill:#ffffff" />
      <path
         id="path22"
         d="m 383.19,342.85 c 5.37,5.99 11.66,11.13 16.1,17.91 11.8,16.1 18.36,35.18 23.27,54.34 -16.52,7.24 -35.27,5.91 -52.72,3.69 -1.92,-11.61 -4.19,-23.15 -6.25,-34.74 -0.45,-1.59 -0.08,-3.17 0.59,-4.63 5.29,-12.7 11.8,-24.86 19.01,-36.57 z"
         style="fill:#ffffff" />
      <path
         id="path24"
         d="m 319.46,365.22 c 19.64,-3.04 39.27,-9.5 54.71,-22.45 -7.67,10.53 -15.59,21.24 -20,33.62 -23.72,3.37 -47.45,6.66 -71.18,9.95 -17.98,-9.47 -37.12,-16.61 -55.83,-24.31 30.41,5.11 61.63,7.71 92.3,3.19 z"
         style="fill:#ffffff" />
      <path
         id="path26"
         d="m 146.54,386.73 c 4.24,-12.07 9.7,-24.03 18.38,-33.6 15.35,4.81 30.84,9.17 46.42,13.19 23.39,6.68 45.54,16.91 68.17,25.69 1.86,14.54 3.09,29.17 4.85,43.72 -21.19,16.06 -49.23,27.24 -75.85,19.59 2.57,-14.66 8.45,-28.39 14.69,-41.77 -11.82,20.23 -18.12,43.97 -17.02,67.45 -0.29,11.42 2,22.64 3.26,33.94 0.28,3.92 0.63,9.11 -3.56,11.15 -23.53,0.63 -47.87,6.69 -70.83,-1.12 -5.84,-11.22 -4.4,-24.65 -4.82,-36.93 0.9,-34.25 5.42,-68.73 16.31,-101.31 z"
         style="fill:#ffffff" />
      <path
         id="path28"
         d="m 285.94,386.68 c 23.03,-3.06 46,-6.53 69.04,-9.49 2.91,2.73 7.83,4.43 8.22,8.93 1.69,9.97 3.61,19.89 5.4,29.84 0.91,3.55 -0.99,6.9 -1.9,10.24 -25.11,5.06 -50.22,10.08 -75.32,15.17 -2.09,-2.34 -4.49,-4.41 -6.36,-6.94 -1.58,-13.45 -2.9,-26.95 -4.46,-40.41 -0.52,-3.22 1.91,-7.29 5.38,-7.34 z"
         style="fill:#ffffff" />
      <path
         id="path30"
         d="m 380.94,428.61 c 14.59,0.46 30.04,0.22 43.38,-6.42 6.9,25.64 8.15,52.59 9.26,79.06 -27.03,14.07 -55.1,26.1 -83.75,36.44 -45.21,16.09 -92.45,27.68 -140.56,29.5 -2.41,-13.12 -5.18,-26.21 -4.45,-39.65 6.87,-2.6 5.73,-10.77 4.87,-16.57 -2.53,-15.32 -3.62,-30.89 -2.42,-46.39 29.61,7.78 60.49,-5.51 84.38,-22.44 24.09,-4.91 48.23,-9.67 72.33,-14.59 5.66,-1.26 11.27,1.16 16.96,1.06 z"
         style="fill:#ffffff" />
      <path
         id="path32"
         d="m 211.76,580.19 c 78.39,-3.62 153.76,-30.56 223.4,-65.35 5.23,19.98 10.71,39.9 15.49,59.99 -23.09,14.34 -49.36,23.63 -76.42,26.52 -5.79,-12.42 -14.95,-24.27 -28.1,-29.33 -10.82,-4.38 -24.75,-1.21 -31.18,8.92 -8.66,12.75 -6.85,29.4 -2.45,43.37 -28.46,13.74 -60.3,19.97 -91.82,19.89 -2.85,-21.35 -5.97,-42.67 -8.92,-64.01 z"
         style="fill:#ffffff" />
    </g>
    <g
       id="#999999ff">
      <path
         id="path35"
         d="m 269.27,47.14 c 14.41,-1.94 29.54,-7.19 43.73,-1.41 35.92,10.42 68.1,33.12 89.68,63.71 23.4,32.68 34.56,74.4 28.28,114.31 -6.39,43.59 -33.37,81.89 -67.91,108.23 0.23,-24.28 -1.01,-48.55 -1.92,-72.79 2.88,-3.06 7.46,-5.46 7.66,-10.2 0.82,-5.58 -4.73,-8.89 -8.48,-11.88 -0.17,-4.39 -0.39,-8.77 -0.57,-13.16 17.68,-10.08 25.28,-34.85 14.92,-52.64 -3.46,-4.95 -7.18,-10.49 -13.06,-12.71 -4.54,-2.15 -9.13,-4.27 -14,-5.59 2.47,0.45 4.93,0.98 7.37,1.6 -4.8,-20.29 -12.99,-41.44 -29.84,-54.75 -15.59,-12.11 -36.37,-11.83 -55.12,-11.19 -22.85,-0.28 -47.12,4.09 -65.03,19.26 -15.71,12.95 -24.8,32.18 -29.19,51.73 -5.86,24.45 -4.4,49.77 -3.41,74.66 l -1.04,-0.87 c -6.67,-28.19 -8.66,-57.82 -3.19,-86.4 5.22,-27.05 18.65,-53.21 40.16,-70.86 17.15,-15.11 38.9,-23.99 60.96,-29.05 z"
         style="fill:#999999" />
      <path
         id="path37"
         d="m 502.79,278.7 c 0.28,-0.44 0.84,-1.33 1.12,-1.78 -0.28,0.45 -0.84,1.34 -1.12,1.78 z"
         style="fill:#999999" />
    </g>
    <g
       id="#bfbebeff">
      <path
         id="path40"
         d="m 510.06,164.09 c 5.1,-4.52 12.96,-4.68 19.14,-2.51 7.4,3.54 10.75,11.99 11.66,19.7 1.59,14.83 -1.79,29.75 -6.76,43.66 -3.11,7.05 -4.82,16.05 -12,20.15 -18.85,-6.62 -35.07,-18.84 -48.84,-33.11 2.3,-13.47 -0.24,-28.77 8.49,-40.35 4.79,-3.06 11.25,-2.62 15.73,0.79 3.33,2.84 1.98,7.72 2.47,11.57 4.15,-6.23 5.77,-13.81 10.11,-19.9 z"
         style="fill:#bfbebe" />
      <path
         id="path42"
         d="m 166.01,322.07 c 12.63,7.43 27.05,11.14 40.87,15.81 26.31,5.96 53.06,11.16 80.14,11.34 30.49,0.23 64.64,-2.83 88.1,-24.57 5.37,2.69 5.72,10.09 1.6,14.06 -17.63,17.47 -42.81,24.08 -66.77,26.77 -20.26,1.93 -40.64,1.09 -60.85,-1.08 -7.66,-1.15 -15.3,-3.26 -23.08,-3.03 -1.61,-1.55 -3.91,-1.63 -5.96,-2.07 -18.03,-3.91 -35.86,-8.76 -53.16,-15.19 -3.65,-6.7 -3.13,-14.97 -0.89,-22.04 z"
         style="fill:#bfbebe" />
      <path
         id="path44"
         d="m 139.02,534.46 c 19.92,5.83 41.41,3.1 61.52,-0.56 2.8,11.02 5.88,22.11 6.8,33.47 0.56,5.93 -5.13,11.64 -11.09,9.65 -5.27,-4.05 -3.8,-11.73 -4.75,-17.55 -0.33,-0.35 -0.98,-1.05 -1.31,-1.4 -0.17,8.69 2.42,17.98 -1.7,26.17 -2.84,6.32 -10.18,8.38 -16.49,9.14 -6.83,0.56 -14.24,1.76 -20.59,-1.58 -6.82,-3.48 -10.49,-10.83 -12.35,-17.93 -3.27,-12.87 -2.84,-26.49 -0.04,-39.41 z"
         style="fill:#bfbebe" />
    </g>
    <g
       id="#ffd800ff">
      <path
         id="path47"
         d="m 304.43,204.08 c 2.8,-2.31 6.06,0.33 7.89,2.55 5.56,6.71 11.24,13.72 19.11,17.82 10.85,5.51 23.08,8.67 32.63,16.51 1.86,1.8 4.52,4.16 4.01,6.95 -3.35,2.57 -7.9,3.1 -11.97,3.84 -23.06,2.44 -45.85,-3.93 -67.38,-11.51 20.33,8.99 43.02,13.72 65.33,12.43 4.92,-0.22 9.62,-1.87 14.25,-3.42 -2.21,6.76 -9.15,10.06 -15.15,12.81 -17.39,7.03 -36.6,8.35 -55.15,6.98 -13.5,-1.48 -27.89,-4.47 -38.29,-13.82 -3.46,-2.9 -6.55,-9.1 -1.81,-12.31 9.52,-6.94 21.95,-9.16 30.67,-17.37 5.43,-7.01 8.91,-15.71 15.86,-21.46 z"
         style="fill:#ffd800" />
    </g>
    <g
       id="#565dffff">
      <path
         id="path50"
         d="m 463.72,219.88 c 1.47,-3.82 4.99,-6.56 9.17,-6.45 13.78,14.03 29.85,26.07 48.51,32.75 -0.58,3.88 -2.5,7.43 -5.4,10.07 -12.76,-5.04 -23.92,-13.3 -35.05,-21.15 -6.03,-4.71 -12.57,-9.06 -17.23,-15.22 z"
         style="fill:#565dff" />
      <path
         id="path52"
         d="m 355.19,375.95 c 5.5,-14.41 14.96,-26.99 24.67,-38.83 1.27,1.22 2.51,2.5 3.67,3.85 -8.18,13.1 -15.29,26.83 -21.3,41.06 -2.36,-2.02 -4.66,-4.09 -7.04,-6.08 z"
         style="fill:#565dff" />
      <path
         id="path54"
         d="m 165.43,352.37 c 1.33,-2.15 2.8,-4.19 4.32,-6.2 21.39,8.46 44.47,11.46 65.75,20.22 15.88,6.22 32.37,12.08 46.74,21.21 -1,1.22 -1.94,2.49 -2.85,3.77 -20.4,-8.34 -40.67,-17.1 -61.65,-23.89 -17.42,-5.07 -35.16,-9.12 -52.31,-15.11 z"
         style="fill:#565dff" />
      <path
         id="path56"
         d="m 369.84,419.51 c 17.66,1.88 36.54,3.41 53.31,-3.69 0.42,1.78 0.87,3.55 1.35,5.33 -17.22,8.73 -37.85,7.89 -56.5,5.16 0.37,-2.33 1.01,-4.6 1.84,-6.8 z"
         style="fill:#565dff" />
      <path
         id="path58"
         d="m 208.61,456.21 c 26.96,7.39 55.23,-3.82 76.59,-20.16 1.85,1.82 3.55,3.78 5.08,5.87 -8.53,7.26 -18.8,12.13 -29.07,16.41 -16.85,6.7 -35.86,10.97 -53.7,5.71 -0.05,-2.66 0.36,-5.29 1.1,-7.83 z"
         style="fill:#565dff" />
      <path
         id="path60"
         d="m 209.15,569.26 c 78.93,-3.53 154.68,-30.9 224.88,-65.69 1.63,3.47 3.04,9.29 -1.95,10.58 -68.09,33.77 -141.63,60.05 -218.12,63.9 -5.06,1.34 -6.24,-5.27 -4.81,-8.79 z"
         style="fill:#565dff" />
      <path
         id="path62"
         d="m 139.37,527.26 c 19.74,6.02 40.48,1.74 60.55,0.39 0.26,1.77 0.51,3.57 0.52,5.39 -17.54,3.6 -35.72,4.47 -53.52,2.64 -4.88,0.07 -9.13,-3.1 -7.55,-8.42 z"
         style="fill:#565dff" />
      <path
         id="path64"
         d="m 373.65,602.72 c 27.38,-2.87 53.84,-12.29 77.35,-26.49 2.24,2.22 5.36,7.14 1.1,9.01 -23.07,14.67 -49.35,26.46 -76.99,27.78 -1.53,-3.2 -2.4,-6.78 -1.46,-10.3 z"
         style="fill:#565dff" />
      <path
         id="path66"
         d="m 219.83,645.47 c 32.36,0.19 64.93,-6.36 94.19,-20.36 2.85,2.12 3.57,5.7 3.85,9.05 -8.79,5.43 -18.54,9.1 -28.22,12.6 -21.98,7.4 -45.18,13.14 -68.53,11.35 -3.12,-3.21 -2.35,-8.6 -1.29,-12.64 z"
         style="fill:#565dff" />
    </g>
  </g>
</svg>
